%TF.GenerationSoftware,KiCad,Pcbnew,10.0.6*%
%TF.CreationDate,2026-09-16T16:30:29+02:00*%
%TF.ProjectId,Jamma SuperGun CPS1 Harness,4a616d6d-6120-4537-9570-657247756e20,rev?*%
%TF.SameCoordinates,Original*%
%TF.FileFunction,Copper,L2,Bot*%
%TF.FilePolarity,Positive*%
%FSLAX46Y46*%
G04 Gerber Fmt 4.6, Leading zero omitted, Abs format (unit mm)*
G04 Created by KiCad (PCBNEW 10.0.6) date 2026-09-16 16:30:29*
%MOMM*%
%LPD*%
G01*
G04 APERTURE LIST*
G04 Aperture macros list*
%AMRoundRect*
0 Rectangle with rounded corners*
0 $1 Rounding radius*
0 $2 $3 $4 $5 $6 $7 $8 $9 X,Y pos of 4 corners*
0 Add a 4 corners polygon primitive as box body*
4,1,4,$2,$3,$4,$5,$6,$7,$8,$9,$2,$3,0*
0 Add four circle primitives for the rounded corners*
1,1,$1+$1,$2,$3*
1,1,$1+$1,$4,$5*
1,1,$1+$1,$6,$7*
1,1,$1+$1,$8,$9*
0 Add four rect primitives between the rounded corners*
20,1,$1+$1,$2,$3,$4,$5,0*
20,1,$1+$1,$4,$5,$6,$7,0*
20,1,$1+$1,$6,$7,$8,$9,0*
20,1,$1+$1,$8,$9,$2,$3,0*%
G04 Aperture macros list end*
%TA.AperFunction,SMDPad,CuDef*%
%ADD10R,2.350000X8.000000*%
%TD*%
%TA.AperFunction,ComponentPad*%
%ADD11RoundRect,0.250000X0.600000X0.725000X-0.600000X0.725000X-0.600000X-0.725000X0.600000X-0.725000X0*%
%TD*%
%TA.AperFunction,ComponentPad*%
%ADD12O,1.700000X1.950000*%
%TD*%
%TA.AperFunction,ViaPad*%
%ADD13C,0.600000*%
%TD*%
%TA.AperFunction,Conductor*%
%ADD14C,1.000000*%
%TD*%
%TA.AperFunction,Conductor*%
%ADD15C,0.200000*%
%TD*%
%TA.AperFunction,Conductor*%
%ADD16C,0.400000*%
%TD*%
G04 APERTURE END LIST*
D10*
%TO.P,CPS1 JAMMA EDGE,A,A_A*%
%TO.N,/GND*%
X143750000Y-72900000D03*
%TO.P,CPS1 JAMMA EDGE,B,B_B*%
X147710000Y-72900000D03*
%TO.P,CPS1 JAMMA EDGE,C,C_C*%
%TO.N,/+5V*%
X151670000Y-72900000D03*
%TO.P,CPS1 JAMMA EDGE,D,D_D*%
X155630000Y-72900000D03*
%TO.P,CPS1 JAMMA EDGE,E,E_E*%
%TO.N,/-5V*%
X159590000Y-72900000D03*
%TO.P,CPS1 JAMMA EDGE,F,F_F*%
%TO.N,/+12V*%
X163550000Y-72900000D03*
%TO.P,CPS1 JAMMA EDGE,J,J_J*%
%TO.N,/Coin Counter 2*%
X171470000Y-72900000D03*
%TO.P,CPS1 JAMMA EDGE,K,K_K*%
%TO.N,/Lockout 2*%
X175430000Y-72900000D03*
%TO.P,CPS1 JAMMA EDGE,L,L_L*%
%TO.N,/Speaker-*%
X179390000Y-72900000D03*
%TO.P,CPS1 JAMMA EDGE,M,M_M*%
%TO.N,/Audio GND*%
X183350000Y-72900000D03*
%TO.P,CPS1 JAMMA EDGE,N,N_N*%
%TO.N,/Video Green*%
X187310000Y-72900000D03*
%TO.P,CPS1 JAMMA EDGE,P,P_P*%
%TO.N,/Video Sync*%
X191270000Y-72900000D03*
%TO.P,CPS1 JAMMA EDGE,R,R_R*%
%TO.N,/Service Switch*%
X195230000Y-72900000D03*
%TO.P,CPS1 JAMMA EDGE,S,S_S*%
%TO.N,/Tilt Switch*%
X199190000Y-72900000D03*
%TO.P,CPS1 JAMMA EDGE,T,T_T*%
%TO.N,/2P Coin*%
X203150000Y-72900000D03*
%TO.P,CPS1 JAMMA EDGE,U,U_U*%
%TO.N,/2P Start*%
X207110000Y-72900000D03*
%TO.P,CPS1 JAMMA EDGE,V,V_V*%
%TO.N,/2P Up*%
X211070000Y-72900000D03*
%TO.P,CPS1 JAMMA EDGE,W,W_W*%
%TO.N,/2P Down*%
X215030000Y-72900000D03*
%TO.P,CPS1 JAMMA EDGE,X,X_X*%
%TO.N,/2P Left*%
X218990000Y-72900000D03*
%TO.P,CPS1 JAMMA EDGE,Y,Y_Y*%
%TO.N,/2P Right*%
X222950000Y-72900000D03*
%TO.P,CPS1 JAMMA EDGE,Z,Z_Z*%
%TO.N,/2P_LP*%
X226910000Y-72900000D03*
%TO.P,CPS1 JAMMA EDGE,a,a_a*%
%TO.N,/2P_MP*%
X230870000Y-72900000D03*
%TO.P,CPS1 JAMMA EDGE,b,b_b*%
%TO.N,/2P_HP*%
X234830000Y-72900000D03*
%TO.P,CPS1 JAMMA EDGE,c,c_c*%
%TO.N,unconnected-(J_FEMALE1-Padc)*%
X238790000Y-72900000D03*
%TO.P,CPS1 JAMMA EDGE,d,d_d*%
%TO.N,unconnected-(J_FEMALE1-Padd)*%
X242750000Y-72900000D03*
%TO.P,CPS1 JAMMA EDGE,e,e_e*%
%TO.N,/GND*%
X246710000Y-72900000D03*
%TO.P,CPS1 JAMMA EDGE,f,f_f*%
X250670000Y-72900000D03*
%TD*%
%TO.P,ARCADE CABINET/SUPERGUN,A,A_A*%
%TO.N,/GND*%
X143750000Y-46000000D03*
%TO.P,ARCADE CABINET/SUPERGUN,B,B_B*%
X147710000Y-46000000D03*
%TO.P,ARCADE CABINET/SUPERGUN,C,C_C*%
%TO.N,/+5V*%
X151670000Y-46000000D03*
%TO.P,ARCADE CABINET/SUPERGUN,D,D_D*%
X155630000Y-46000000D03*
%TO.P,ARCADE CABINET/SUPERGUN,E,E_E*%
%TO.N,/-5V*%
X159590000Y-46000000D03*
%TO.P,ARCADE CABINET/SUPERGUN,F,F_F*%
%TO.N,/+12V*%
X163550000Y-46000000D03*
%TO.P,ARCADE CABINET/SUPERGUN,J,J_J*%
%TO.N,/Coin Counter 2*%
X171470000Y-46000000D03*
%TO.P,ARCADE CABINET/SUPERGUN,K,K_K*%
%TO.N,/Lockout 2*%
X175430000Y-46000000D03*
%TO.P,ARCADE CABINET/SUPERGUN,L,L_L*%
%TO.N,/Speaker-*%
X179390000Y-46000000D03*
%TO.P,ARCADE CABINET/SUPERGUN,M,M_M*%
%TO.N,/Audio GND*%
X183350000Y-46000000D03*
%TO.P,ARCADE CABINET/SUPERGUN,N,N_N*%
%TO.N,/Video Green*%
X187310000Y-46000000D03*
%TO.P,ARCADE CABINET/SUPERGUN,P,P_P*%
%TO.N,/Video Sync*%
X191270000Y-46000000D03*
%TO.P,ARCADE CABINET/SUPERGUN,R,R_R*%
%TO.N,/Service Switch*%
X195230000Y-46000000D03*
%TO.P,ARCADE CABINET/SUPERGUN,S,S_S*%
%TO.N,/Tilt Switch*%
X199190000Y-46000000D03*
%TO.P,ARCADE CABINET/SUPERGUN,T,T_T*%
%TO.N,/2P Coin*%
X203150000Y-46000000D03*
%TO.P,ARCADE CABINET/SUPERGUN,U,U_U*%
%TO.N,/2P Start*%
X207110000Y-46000000D03*
%TO.P,ARCADE CABINET/SUPERGUN,V,V_V*%
%TO.N,/2P Up*%
X211070000Y-46000000D03*
%TO.P,ARCADE CABINET/SUPERGUN,W,W_W*%
%TO.N,/2P Down*%
X215030000Y-46000000D03*
%TO.P,ARCADE CABINET/SUPERGUN,X,X_X*%
%TO.N,/2P Left*%
X218990000Y-46000000D03*
%TO.P,ARCADE CABINET/SUPERGUN,Y,Y_Y*%
%TO.N,/2P Right*%
X222950000Y-46000000D03*
%TO.P,ARCADE CABINET/SUPERGUN,Z,Z_Z*%
%TO.N,/2P_LP*%
X226910000Y-46000000D03*
%TO.P,ARCADE CABINET/SUPERGUN,a,a_a*%
%TO.N,/2P_MP*%
X230870000Y-46000000D03*
%TO.P,ARCADE CABINET/SUPERGUN,b,b_b*%
%TO.N,/2P_LK*%
X234830000Y-46000000D03*
%TO.P,ARCADE CABINET/SUPERGUN,c,c_c*%
%TO.N,/2P_MK*%
X238790000Y-46000000D03*
%TO.P,ARCADE CABINET/SUPERGUN,d,d_d*%
%TO.N,/2P_HP*%
X242750000Y-46000000D03*
%TO.P,ARCADE CABINET/SUPERGUN,e,e_e*%
%TO.N,/2P_HK*%
X246710000Y-46000000D03*
%TO.P,ARCADE CABINET/SUPERGUN,f,f_f*%
%TO.N,/GND*%
X250670000Y-46000000D03*
%TD*%
D11*
%TO.P,CPS1 KICK HARNESS,1,1_1*%
%TO.N,/GND*%
X245922000Y-60080000D03*
D12*
%TO.P,CPS1 KICK HARNESS,2,2_2*%
X243422000Y-60080000D03*
%TO.P,CPS1 KICK HARNESS,3,3_3*%
%TO.N,/1P_LK*%
X240922000Y-60080000D03*
%TO.P,CPS1 KICK HARNESS,4,4_4*%
%TO.N,/1P_MK*%
X238422000Y-60080000D03*
%TO.P,CPS1 KICK HARNESS,5,5_5*%
%TO.N,/1P_HK*%
X235922000Y-60080000D03*
%TO.P,CPS1 KICK HARNESS,6,6_6*%
%TO.N,unconnected-(CPS1_KH1-Pad6)*%
X233422000Y-60080000D03*
%TO.P,CPS1 KICK HARNESS,7,7_7*%
%TO.N,/2P_LK*%
X230922000Y-60080000D03*
%TO.P,CPS1 KICK HARNESS,8,8_8*%
%TO.N,/2P_MK*%
X228422000Y-60080000D03*
%TO.P,CPS1 KICK HARNESS,9,9_9*%
%TO.N,/2P_HK*%
X225922000Y-60080000D03*
%TO.P,CPS1 KICK HARNESS,10,10_10*%
%TO.N,unconnected-(CPS1_KH1-Pad10)*%
X223422000Y-60080000D03*
%TD*%
D13*
%TO.N,/GND*%
X147710000Y-56524000D03*
X143750000Y-56524000D03*
%TO.N,/+5V*%
X151670000Y-56524000D03*
X155630000Y-56524000D03*
%TO.N,/-5V*%
X159600000Y-56524000D03*
%TO.N,/+12V*%
X163550000Y-56524000D03*
%TO.N,/1P_HP*%
X221825000Y-54365000D03*
X241510000Y-51698000D03*
%TO.N,/1P_MK*%
X239986000Y-56778000D03*
X244812000Y-56778000D03*
%TO.N,/1P_HK*%
X244812000Y-55508000D03*
X238462000Y-55508000D03*
%TO.N,/2P_LK*%
X230842000Y-55508000D03*
X233382000Y-51760000D03*
%TO.N,/2P_MK*%
X231604000Y-56524000D03*
X236430000Y-51698000D03*
%TD*%
%TO.N,/GND*%
D14*
X246710000Y-65534000D02*
X245828000Y-64652000D01*
D15*
X143750000Y-46000000D02*
X143750000Y-48850000D01*
D14*
X250670000Y-55238000D02*
X245701000Y-60207000D01*
D15*
X143750000Y-48850000D02*
X143600000Y-49000000D01*
X245828000Y-60174000D02*
X245922000Y-60080000D01*
D14*
X245701000Y-60207000D02*
X250670000Y-65176000D01*
X246710000Y-72900000D02*
X246710000Y-65534000D01*
X250670000Y-46000000D02*
X250670000Y-55238000D01*
X245828000Y-64652000D02*
X245828000Y-60174000D01*
X147710000Y-46000000D02*
X147710000Y-72900000D01*
X250670000Y-65176000D02*
X250670000Y-72900000D01*
X143750000Y-46000000D02*
X143750000Y-72900000D01*
X147710000Y-56524000D02*
X143750000Y-56524000D01*
%TO.N,/+5V*%
X155630000Y-46000000D02*
X155630000Y-72900000D01*
X151670000Y-46000000D02*
X151670000Y-72900000D01*
X151670000Y-56524000D02*
X155630000Y-56524000D01*
%TO.N,/-5V*%
X159590000Y-46000000D02*
X159590000Y-72900000D01*
%TO.N,/+12V*%
X163550000Y-46000000D02*
X163550000Y-72900000D01*
%TO.N,/1P_HP*%
D16*
X227540000Y-54365000D02*
X221825000Y-54365000D01*
X229445000Y-52460000D02*
X227540000Y-54365000D01*
X240748000Y-52460000D02*
X229445000Y-52460000D01*
X241510000Y-51698000D02*
X240748000Y-52460000D01*
%TO.N,/Coin Counter 2*%
X171470000Y-46000000D02*
X171470000Y-72900000D01*
%TO.N,/Lockout 2*%
X175430000Y-46000000D02*
X175430000Y-72900000D01*
%TO.N,/Speaker-*%
X179390000Y-46000000D02*
X179390000Y-72900000D01*
%TO.N,/Audio GND*%
X183350000Y-46000000D02*
X183350000Y-72900000D01*
%TO.N,/Video Green*%
X187310000Y-46000000D02*
X187310000Y-72900000D01*
%TO.N,/Video Sync*%
X191270000Y-46000000D02*
X191270000Y-72900000D01*
%TO.N,/Service Switch*%
X195230000Y-46000000D02*
X195230000Y-72900000D01*
%TO.N,/Tilt Switch*%
X199190000Y-46000000D02*
X199190000Y-72900000D01*
%TO.N,/2P Coin*%
X203150000Y-46000000D02*
X203150000Y-72900000D01*
%TO.N,/2P Start*%
X207110000Y-46000000D02*
X207110000Y-72900000D01*
%TO.N,/2P Up*%
X211070000Y-68629000D02*
X211070000Y-72900000D01*
X209000000Y-53000000D02*
X209000000Y-66559000D01*
X211070000Y-50930000D02*
X209000000Y-53000000D01*
X211070000Y-46000000D02*
X211070000Y-50930000D01*
X209000000Y-66559000D02*
X211070000Y-68629000D01*
%TO.N,/2P Down*%
X215030000Y-69030000D02*
X215030000Y-72900000D01*
X211000000Y-54141000D02*
X211000000Y-65000000D01*
X215030000Y-50111000D02*
X211000000Y-54141000D01*
X215030000Y-46000000D02*
X215030000Y-50111000D01*
X211000000Y-65000000D02*
X215030000Y-69030000D01*
%TO.N,/2P Left*%
X212300000Y-64195000D02*
X215805000Y-67700000D01*
X215805000Y-67700000D02*
X217700000Y-67700000D01*
X217700000Y-67700000D02*
X218990000Y-68990000D01*
X212300000Y-55254000D02*
X212300000Y-64195000D01*
X218990000Y-68990000D02*
X218990000Y-72900000D01*
X218990000Y-46000000D02*
X218990000Y-48564000D01*
X218990000Y-48564000D02*
X212300000Y-55254000D01*
%TO.N,/2P Right*%
X213570000Y-55762000D02*
X213570000Y-63520000D01*
X222950000Y-66920000D02*
X222950000Y-72900000D01*
X222950000Y-51000000D02*
X218332000Y-51000000D01*
X213570000Y-63520000D02*
X216480000Y-66430000D01*
X222460000Y-66430000D02*
X222950000Y-66920000D01*
X216480000Y-66430000D02*
X222460000Y-66430000D01*
X222950000Y-46000000D02*
X222950000Y-51000000D01*
X218332000Y-51000000D02*
X213570000Y-55762000D01*
%TO.N,/2P_LP*%
X226910000Y-46110000D02*
X226910000Y-50296000D01*
X219173500Y-52000000D02*
X214840000Y-56333500D01*
X214840000Y-56333500D02*
X214840000Y-62840000D01*
X217414000Y-65414000D02*
X223414000Y-65414000D01*
X223414000Y-65414000D02*
X226910000Y-68910000D01*
X226910000Y-68910000D02*
X226910000Y-72900000D01*
D15*
X226900000Y-46100000D02*
X226910000Y-46110000D01*
D16*
X226910000Y-50296000D02*
X225206000Y-52000000D01*
X214840000Y-62840000D02*
X217414000Y-65414000D01*
D15*
X226910000Y-46090000D02*
X226900000Y-46100000D01*
D16*
X225206000Y-52000000D02*
X219173500Y-52000000D01*
D15*
X226910000Y-46000000D02*
X226910000Y-46090000D01*
%TO.N,/2P_MP*%
D16*
X230870000Y-68744000D02*
X230870000Y-72900000D01*
X230842000Y-46028000D02*
X230842000Y-49920000D01*
X216110000Y-61350000D02*
X219158000Y-64398000D01*
X230842000Y-49920000D02*
X227794000Y-52968000D01*
X219158000Y-64398000D02*
X226524000Y-64398000D01*
X230870000Y-46000000D02*
X230842000Y-46028000D01*
X219539000Y-52968000D02*
X216110000Y-56397000D01*
X216110000Y-56397000D02*
X216110000Y-61350000D01*
X226524000Y-64398000D02*
X230870000Y-68744000D01*
X227794000Y-52968000D02*
X219539000Y-52968000D01*
%TO.N,/2P_HP*%
X242780000Y-52460000D02*
X241764000Y-53476000D01*
X234830000Y-68894000D02*
X234830000Y-69910000D01*
X230080000Y-53476000D02*
X228048000Y-55508000D01*
X241764000Y-53476000D02*
X230080000Y-53476000D01*
D15*
X234830000Y-72900000D02*
X234830000Y-69910000D01*
D16*
X242780000Y-46030000D02*
X242780000Y-52460000D01*
X218015000Y-56270000D02*
X218015000Y-60715000D01*
X218777000Y-55508000D02*
X218015000Y-56270000D01*
X229064000Y-63128000D02*
X234830000Y-68894000D01*
X220428000Y-63128000D02*
X229064000Y-63128000D01*
X218015000Y-60715000D02*
X220428000Y-63128000D01*
X228048000Y-55508000D02*
X218777000Y-55508000D01*
X242750000Y-46000000D02*
X242780000Y-46030000D01*
%TO.N,/1P_MK*%
X244812000Y-56778000D02*
X239986000Y-56778000D01*
%TO.N,/1P_HK*%
X238462000Y-55508000D02*
X244812000Y-55508000D01*
%TO.N,/2P_LK*%
X233382000Y-51760000D02*
X234336000Y-51760000D01*
X230842000Y-55508000D02*
X232874000Y-55508000D01*
D15*
X234830000Y-46000000D02*
X234830000Y-48218000D01*
D16*
X232874000Y-58048000D02*
X230922000Y-60000000D01*
X232874000Y-55508000D02*
X232874000Y-58048000D01*
X230922000Y-60000000D02*
X230922000Y-60080000D01*
X234830000Y-51266000D02*
X234830000Y-48218000D01*
X234336000Y-51760000D02*
X234830000Y-51266000D01*
%TO.N,/2P_MK*%
X236430000Y-51698000D02*
X238208000Y-51698000D01*
X238790000Y-51116000D02*
X238790000Y-48322000D01*
X228422000Y-59706000D02*
X228422000Y-60080000D01*
X231604000Y-56524000D02*
X228422000Y-59706000D01*
D15*
X238790000Y-46000000D02*
X238790000Y-48322000D01*
D16*
X238208000Y-51698000D02*
X238790000Y-51116000D01*
%TO.N,/2P_HK*%
D15*
X246710000Y-46000000D02*
X246710000Y-48825000D01*
D16*
X243542000Y-54492000D02*
X230588000Y-54492000D01*
X225922000Y-59158000D02*
X225922000Y-60080000D01*
X246710000Y-51324000D02*
X243542000Y-54492000D01*
X230588000Y-54492000D02*
X225922000Y-59158000D01*
X246710000Y-48825000D02*
X246710000Y-51324000D01*
%TD*%
M02*
