%TF.GenerationSoftware,KiCad,Pcbnew,10.0.6*%
%TF.CreationDate,2026-09-16T16:30:29+02:00*%
%TF.ProjectId,Jamma SuperGun CPS1 Harness,4a616d6d-6120-4537-9570-657247756e20,rev?*%
%TF.SameCoordinates,Original*%
%TF.FileFunction,Paste,Top*%
%TF.FilePolarity,Positive*%
%FSLAX46Y46*%
G04 Gerber Fmt 4.6, Leading zero omitted, Abs format (unit mm)*
G04 Created by KiCad (PCBNEW 10.0.6) date 2026-09-16 16:30:29*
%MOMM*%
%LPD*%
G01*
G04 APERTURE LIST*
%ADD10R,2.350000X8.000000*%
G04 APERTURE END LIST*
D10*
%TO.C,CPS1 JAMMA EDGE*%
X143750000Y-72900000D03*
X147710000Y-72900000D03*
X151670000Y-72900000D03*
X155630000Y-72900000D03*
X159590000Y-72900000D03*
X163550000Y-72900000D03*
X171470000Y-72900000D03*
X175430000Y-72900000D03*
X179390000Y-72900000D03*
X183350000Y-72900000D03*
X187310000Y-72900000D03*
X191270000Y-72900000D03*
X195230000Y-72900000D03*
X199190000Y-72900000D03*
X203150000Y-72900000D03*
X207110000Y-72900000D03*
X211070000Y-72900000D03*
X215030000Y-72900000D03*
X218990000Y-72900000D03*
X222950000Y-72900000D03*
X226910000Y-72900000D03*
X230870000Y-72900000D03*
X234830000Y-72900000D03*
X238790000Y-72900000D03*
X242750000Y-72900000D03*
X246710000Y-72900000D03*
X250670000Y-72900000D03*
%TD*%
%TO.C,ARCADE CABINET/SUPERGUN*%
X143750000Y-46000000D03*
X147710000Y-46000000D03*
X151670000Y-46000000D03*
X155630000Y-46000000D03*
X159590000Y-46000000D03*
X163550000Y-46000000D03*
X171470000Y-46000000D03*
X175430000Y-46000000D03*
X179390000Y-46000000D03*
X183350000Y-46000000D03*
X187310000Y-46000000D03*
X191270000Y-46000000D03*
X195230000Y-46000000D03*
X199190000Y-46000000D03*
X203150000Y-46000000D03*
X207110000Y-46000000D03*
X211070000Y-46000000D03*
X215030000Y-46000000D03*
X218990000Y-46000000D03*
X222950000Y-46000000D03*
X226910000Y-46000000D03*
X230870000Y-46000000D03*
X234830000Y-46000000D03*
X238790000Y-46000000D03*
X242750000Y-46000000D03*
X246710000Y-46000000D03*
X250670000Y-46000000D03*
%TD*%
M02*
