%TF.GenerationSoftware,KiCad,Pcbnew,10.0.6*%
%TF.CreationDate,2026-09-16T16:30:29+02:00*%
%TF.ProjectId,Jamma SuperGun CPS1 Harness,4a616d6d-6120-4537-9570-657247756e20,rev?*%
%TF.SameCoordinates,Original*%
%TF.FileFunction,Legend,Bot*%
%TF.FilePolarity,Positive*%
%FSLAX46Y46*%
G04 Gerber Fmt 4.6, Leading zero omitted, Abs format (unit mm)*
G04 Created by KiCad (PCBNEW 10.0.6) date 2026-09-16 16:30:29*
%MOMM*%
%LPD*%
G01*
G04 APERTURE LIST*
%ADD10C,0.125000*%
G04 APERTURE END LIST*
D10*
X144196621Y-50752452D02*
X144253764Y-50721976D01*
X144253764Y-50721976D02*
X144339478Y-50721976D01*
X144339478Y-50721976D02*
X144425192Y-50752452D01*
X144425192Y-50752452D02*
X144482335Y-50813404D01*
X144482335Y-50813404D02*
X144510906Y-50874357D01*
X144510906Y-50874357D02*
X144539478Y-50996261D01*
X144539478Y-50996261D02*
X144539478Y-51087690D01*
X144539478Y-51087690D02*
X144510906Y-51209595D01*
X144510906Y-51209595D02*
X144482335Y-51270547D01*
X144482335Y-51270547D02*
X144425192Y-51331500D01*
X144425192Y-51331500D02*
X144339478Y-51361976D01*
X144339478Y-51361976D02*
X144282335Y-51361976D01*
X144282335Y-51361976D02*
X144196621Y-51331500D01*
X144196621Y-51331500D02*
X144168049Y-51301023D01*
X144168049Y-51301023D02*
X144168049Y-51087690D01*
X144168049Y-51087690D02*
X144282335Y-51087690D01*
X143910906Y-51361976D02*
X143910906Y-50721976D01*
X143910906Y-50721976D02*
X143568049Y-51361976D01*
X143568049Y-51361976D02*
X143568049Y-50721976D01*
X143282335Y-51361976D02*
X143282335Y-50721976D01*
X143282335Y-50721976D02*
X143139478Y-50721976D01*
X143139478Y-50721976D02*
X143053764Y-50752452D01*
X143053764Y-50752452D02*
X142996621Y-50813404D01*
X142996621Y-50813404D02*
X142968050Y-50874357D01*
X142968050Y-50874357D02*
X142939478Y-50996261D01*
X142939478Y-50996261D02*
X142939478Y-51087690D01*
X142939478Y-51087690D02*
X142968050Y-51209595D01*
X142968050Y-51209595D02*
X142996621Y-51270547D01*
X142996621Y-51270547D02*
X143053764Y-51331500D01*
X143053764Y-51331500D02*
X143139478Y-51361976D01*
X143139478Y-51361976D02*
X143282335Y-51361976D01*
X144196621Y-67516452D02*
X144253764Y-67485976D01*
X144253764Y-67485976D02*
X144339478Y-67485976D01*
X144339478Y-67485976D02*
X144425192Y-67516452D01*
X144425192Y-67516452D02*
X144482335Y-67577404D01*
X144482335Y-67577404D02*
X144510906Y-67638357D01*
X144510906Y-67638357D02*
X144539478Y-67760261D01*
X144539478Y-67760261D02*
X144539478Y-67851690D01*
X144539478Y-67851690D02*
X144510906Y-67973595D01*
X144510906Y-67973595D02*
X144482335Y-68034547D01*
X144482335Y-68034547D02*
X144425192Y-68095500D01*
X144425192Y-68095500D02*
X144339478Y-68125976D01*
X144339478Y-68125976D02*
X144282335Y-68125976D01*
X144282335Y-68125976D02*
X144196621Y-68095500D01*
X144196621Y-68095500D02*
X144168049Y-68065023D01*
X144168049Y-68065023D02*
X144168049Y-67851690D01*
X144168049Y-67851690D02*
X144282335Y-67851690D01*
X143910906Y-68125976D02*
X143910906Y-67485976D01*
X143910906Y-67485976D02*
X143568049Y-68125976D01*
X143568049Y-68125976D02*
X143568049Y-67485976D01*
X143282335Y-68125976D02*
X143282335Y-67485976D01*
X143282335Y-67485976D02*
X143139478Y-67485976D01*
X143139478Y-67485976D02*
X143053764Y-67516452D01*
X143053764Y-67516452D02*
X142996621Y-67577404D01*
X142996621Y-67577404D02*
X142968050Y-67638357D01*
X142968050Y-67638357D02*
X142939478Y-67760261D01*
X142939478Y-67760261D02*
X142939478Y-67851690D01*
X142939478Y-67851690D02*
X142968050Y-67973595D01*
X142968050Y-67973595D02*
X142996621Y-68034547D01*
X142996621Y-68034547D02*
X143053764Y-68095500D01*
X143053764Y-68095500D02*
X143139478Y-68125976D01*
X143139478Y-68125976D02*
X143282335Y-68125976D01*
X148260621Y-50752452D02*
X148317764Y-50721976D01*
X148317764Y-50721976D02*
X148403478Y-50721976D01*
X148403478Y-50721976D02*
X148489192Y-50752452D01*
X148489192Y-50752452D02*
X148546335Y-50813404D01*
X148546335Y-50813404D02*
X148574906Y-50874357D01*
X148574906Y-50874357D02*
X148603478Y-50996261D01*
X148603478Y-50996261D02*
X148603478Y-51087690D01*
X148603478Y-51087690D02*
X148574906Y-51209595D01*
X148574906Y-51209595D02*
X148546335Y-51270547D01*
X148546335Y-51270547D02*
X148489192Y-51331500D01*
X148489192Y-51331500D02*
X148403478Y-51361976D01*
X148403478Y-51361976D02*
X148346335Y-51361976D01*
X148346335Y-51361976D02*
X148260621Y-51331500D01*
X148260621Y-51331500D02*
X148232049Y-51301023D01*
X148232049Y-51301023D02*
X148232049Y-51087690D01*
X148232049Y-51087690D02*
X148346335Y-51087690D01*
X147974906Y-51361976D02*
X147974906Y-50721976D01*
X147974906Y-50721976D02*
X147632049Y-51361976D01*
X147632049Y-51361976D02*
X147632049Y-50721976D01*
X147346335Y-51361976D02*
X147346335Y-50721976D01*
X147346335Y-50721976D02*
X147203478Y-50721976D01*
X147203478Y-50721976D02*
X147117764Y-50752452D01*
X147117764Y-50752452D02*
X147060621Y-50813404D01*
X147060621Y-50813404D02*
X147032050Y-50874357D01*
X147032050Y-50874357D02*
X147003478Y-50996261D01*
X147003478Y-50996261D02*
X147003478Y-51087690D01*
X147003478Y-51087690D02*
X147032050Y-51209595D01*
X147032050Y-51209595D02*
X147060621Y-51270547D01*
X147060621Y-51270547D02*
X147117764Y-51331500D01*
X147117764Y-51331500D02*
X147203478Y-51361976D01*
X147203478Y-51361976D02*
X147346335Y-51361976D01*
X148260621Y-67516452D02*
X148317764Y-67485976D01*
X148317764Y-67485976D02*
X148403478Y-67485976D01*
X148403478Y-67485976D02*
X148489192Y-67516452D01*
X148489192Y-67516452D02*
X148546335Y-67577404D01*
X148546335Y-67577404D02*
X148574906Y-67638357D01*
X148574906Y-67638357D02*
X148603478Y-67760261D01*
X148603478Y-67760261D02*
X148603478Y-67851690D01*
X148603478Y-67851690D02*
X148574906Y-67973595D01*
X148574906Y-67973595D02*
X148546335Y-68034547D01*
X148546335Y-68034547D02*
X148489192Y-68095500D01*
X148489192Y-68095500D02*
X148403478Y-68125976D01*
X148403478Y-68125976D02*
X148346335Y-68125976D01*
X148346335Y-68125976D02*
X148260621Y-68095500D01*
X148260621Y-68095500D02*
X148232049Y-68065023D01*
X148232049Y-68065023D02*
X148232049Y-67851690D01*
X148232049Y-67851690D02*
X148346335Y-67851690D01*
X147974906Y-68125976D02*
X147974906Y-67485976D01*
X147974906Y-67485976D02*
X147632049Y-68125976D01*
X147632049Y-68125976D02*
X147632049Y-67485976D01*
X147346335Y-68125976D02*
X147346335Y-67485976D01*
X147346335Y-67485976D02*
X147203478Y-67485976D01*
X147203478Y-67485976D02*
X147117764Y-67516452D01*
X147117764Y-67516452D02*
X147060621Y-67577404D01*
X147060621Y-67577404D02*
X147032050Y-67638357D01*
X147032050Y-67638357D02*
X147003478Y-67760261D01*
X147003478Y-67760261D02*
X147003478Y-67851690D01*
X147003478Y-67851690D02*
X147032050Y-67973595D01*
X147032050Y-67973595D02*
X147060621Y-68034547D01*
X147060621Y-68034547D02*
X147117764Y-68095500D01*
X147117764Y-68095500D02*
X147203478Y-68125976D01*
X147203478Y-68125976D02*
X147346335Y-68125976D01*
X152384906Y-51118166D02*
X151927764Y-51118166D01*
X152156335Y-51361976D02*
X152156335Y-50874357D01*
X151356335Y-50721976D02*
X151642049Y-50721976D01*
X151642049Y-50721976D02*
X151670621Y-51026738D01*
X151670621Y-51026738D02*
X151642049Y-50996261D01*
X151642049Y-50996261D02*
X151584907Y-50965785D01*
X151584907Y-50965785D02*
X151442049Y-50965785D01*
X151442049Y-50965785D02*
X151384907Y-50996261D01*
X151384907Y-50996261D02*
X151356335Y-51026738D01*
X151356335Y-51026738D02*
X151327764Y-51087690D01*
X151327764Y-51087690D02*
X151327764Y-51240071D01*
X151327764Y-51240071D02*
X151356335Y-51301023D01*
X151356335Y-51301023D02*
X151384907Y-51331500D01*
X151384907Y-51331500D02*
X151442049Y-51361976D01*
X151442049Y-51361976D02*
X151584907Y-51361976D01*
X151584907Y-51361976D02*
X151642049Y-51331500D01*
X151642049Y-51331500D02*
X151670621Y-51301023D01*
X151156335Y-50721976D02*
X150956335Y-51361976D01*
X150956335Y-51361976D02*
X150756335Y-50721976D01*
X152384906Y-67882166D02*
X151927764Y-67882166D01*
X152156335Y-68125976D02*
X152156335Y-67638357D01*
X151356335Y-67485976D02*
X151642049Y-67485976D01*
X151642049Y-67485976D02*
X151670621Y-67790738D01*
X151670621Y-67790738D02*
X151642049Y-67760261D01*
X151642049Y-67760261D02*
X151584907Y-67729785D01*
X151584907Y-67729785D02*
X151442049Y-67729785D01*
X151442049Y-67729785D02*
X151384907Y-67760261D01*
X151384907Y-67760261D02*
X151356335Y-67790738D01*
X151356335Y-67790738D02*
X151327764Y-67851690D01*
X151327764Y-67851690D02*
X151327764Y-68004071D01*
X151327764Y-68004071D02*
X151356335Y-68065023D01*
X151356335Y-68065023D02*
X151384907Y-68095500D01*
X151384907Y-68095500D02*
X151442049Y-68125976D01*
X151442049Y-68125976D02*
X151584907Y-68125976D01*
X151584907Y-68125976D02*
X151642049Y-68095500D01*
X151642049Y-68095500D02*
X151670621Y-68065023D01*
X151156335Y-67485976D02*
X150956335Y-68125976D01*
X150956335Y-68125976D02*
X150756335Y-67485976D01*
X156448906Y-51118166D02*
X155991764Y-51118166D01*
X156220335Y-51361976D02*
X156220335Y-50874357D01*
X155420335Y-50721976D02*
X155706049Y-50721976D01*
X155706049Y-50721976D02*
X155734621Y-51026738D01*
X155734621Y-51026738D02*
X155706049Y-50996261D01*
X155706049Y-50996261D02*
X155648907Y-50965785D01*
X155648907Y-50965785D02*
X155506049Y-50965785D01*
X155506049Y-50965785D02*
X155448907Y-50996261D01*
X155448907Y-50996261D02*
X155420335Y-51026738D01*
X155420335Y-51026738D02*
X155391764Y-51087690D01*
X155391764Y-51087690D02*
X155391764Y-51240071D01*
X155391764Y-51240071D02*
X155420335Y-51301023D01*
X155420335Y-51301023D02*
X155448907Y-51331500D01*
X155448907Y-51331500D02*
X155506049Y-51361976D01*
X155506049Y-51361976D02*
X155648907Y-51361976D01*
X155648907Y-51361976D02*
X155706049Y-51331500D01*
X155706049Y-51331500D02*
X155734621Y-51301023D01*
X155220335Y-50721976D02*
X155020335Y-51361976D01*
X155020335Y-51361976D02*
X154820335Y-50721976D01*
X156448906Y-67882166D02*
X155991764Y-67882166D01*
X156220335Y-68125976D02*
X156220335Y-67638357D01*
X155420335Y-67485976D02*
X155706049Y-67485976D01*
X155706049Y-67485976D02*
X155734621Y-67790738D01*
X155734621Y-67790738D02*
X155706049Y-67760261D01*
X155706049Y-67760261D02*
X155648907Y-67729785D01*
X155648907Y-67729785D02*
X155506049Y-67729785D01*
X155506049Y-67729785D02*
X155448907Y-67760261D01*
X155448907Y-67760261D02*
X155420335Y-67790738D01*
X155420335Y-67790738D02*
X155391764Y-67851690D01*
X155391764Y-67851690D02*
X155391764Y-68004071D01*
X155391764Y-68004071D02*
X155420335Y-68065023D01*
X155420335Y-68065023D02*
X155448907Y-68095500D01*
X155448907Y-68095500D02*
X155506049Y-68125976D01*
X155506049Y-68125976D02*
X155648907Y-68125976D01*
X155648907Y-68125976D02*
X155706049Y-68095500D01*
X155706049Y-68095500D02*
X155734621Y-68065023D01*
X155220335Y-67485976D02*
X155020335Y-68125976D01*
X155020335Y-68125976D02*
X154820335Y-67485976D01*
X160258906Y-51118166D02*
X159801764Y-51118166D01*
X159230335Y-50721976D02*
X159516049Y-50721976D01*
X159516049Y-50721976D02*
X159544621Y-51026738D01*
X159544621Y-51026738D02*
X159516049Y-50996261D01*
X159516049Y-50996261D02*
X159458907Y-50965785D01*
X159458907Y-50965785D02*
X159316049Y-50965785D01*
X159316049Y-50965785D02*
X159258907Y-50996261D01*
X159258907Y-50996261D02*
X159230335Y-51026738D01*
X159230335Y-51026738D02*
X159201764Y-51087690D01*
X159201764Y-51087690D02*
X159201764Y-51240071D01*
X159201764Y-51240071D02*
X159230335Y-51301023D01*
X159230335Y-51301023D02*
X159258907Y-51331500D01*
X159258907Y-51331500D02*
X159316049Y-51361976D01*
X159316049Y-51361976D02*
X159458907Y-51361976D01*
X159458907Y-51361976D02*
X159516049Y-51331500D01*
X159516049Y-51331500D02*
X159544621Y-51301023D01*
X159030335Y-50721976D02*
X158830335Y-51361976D01*
X158830335Y-51361976D02*
X158630335Y-50721976D01*
X160258906Y-67882166D02*
X159801764Y-67882166D01*
X159230335Y-67485976D02*
X159516049Y-67485976D01*
X159516049Y-67485976D02*
X159544621Y-67790738D01*
X159544621Y-67790738D02*
X159516049Y-67760261D01*
X159516049Y-67760261D02*
X159458907Y-67729785D01*
X159458907Y-67729785D02*
X159316049Y-67729785D01*
X159316049Y-67729785D02*
X159258907Y-67760261D01*
X159258907Y-67760261D02*
X159230335Y-67790738D01*
X159230335Y-67790738D02*
X159201764Y-67851690D01*
X159201764Y-67851690D02*
X159201764Y-68004071D01*
X159201764Y-68004071D02*
X159230335Y-68065023D01*
X159230335Y-68065023D02*
X159258907Y-68095500D01*
X159258907Y-68095500D02*
X159316049Y-68125976D01*
X159316049Y-68125976D02*
X159458907Y-68125976D01*
X159458907Y-68125976D02*
X159516049Y-68095500D01*
X159516049Y-68095500D02*
X159544621Y-68065023D01*
X159030335Y-67485976D02*
X158830335Y-68125976D01*
X158830335Y-68125976D02*
X158630335Y-67485976D01*
X164068906Y-51118166D02*
X163611764Y-51118166D01*
X163840335Y-51361976D02*
X163840335Y-50874357D01*
X163011764Y-51361976D02*
X163354621Y-51361976D01*
X163183192Y-51361976D02*
X163183192Y-50721976D01*
X163183192Y-50721976D02*
X163240335Y-50813404D01*
X163240335Y-50813404D02*
X163297478Y-50874357D01*
X163297478Y-50874357D02*
X163354621Y-50904833D01*
X162783192Y-50782928D02*
X162754620Y-50752452D01*
X162754620Y-50752452D02*
X162697478Y-50721976D01*
X162697478Y-50721976D02*
X162554620Y-50721976D01*
X162554620Y-50721976D02*
X162497478Y-50752452D01*
X162497478Y-50752452D02*
X162468906Y-50782928D01*
X162468906Y-50782928D02*
X162440335Y-50843880D01*
X162440335Y-50843880D02*
X162440335Y-50904833D01*
X162440335Y-50904833D02*
X162468906Y-50996261D01*
X162468906Y-50996261D02*
X162811763Y-51361976D01*
X162811763Y-51361976D02*
X162440335Y-51361976D01*
X162268906Y-50721976D02*
X162068906Y-51361976D01*
X162068906Y-51361976D02*
X161868906Y-50721976D01*
X164068906Y-67882166D02*
X163611764Y-67882166D01*
X163840335Y-68125976D02*
X163840335Y-67638357D01*
X163011764Y-68125976D02*
X163354621Y-68125976D01*
X163183192Y-68125976D02*
X163183192Y-67485976D01*
X163183192Y-67485976D02*
X163240335Y-67577404D01*
X163240335Y-67577404D02*
X163297478Y-67638357D01*
X163297478Y-67638357D02*
X163354621Y-67668833D01*
X162783192Y-67546928D02*
X162754620Y-67516452D01*
X162754620Y-67516452D02*
X162697478Y-67485976D01*
X162697478Y-67485976D02*
X162554620Y-67485976D01*
X162554620Y-67485976D02*
X162497478Y-67516452D01*
X162497478Y-67516452D02*
X162468906Y-67546928D01*
X162468906Y-67546928D02*
X162440335Y-67607880D01*
X162440335Y-67607880D02*
X162440335Y-67668833D01*
X162440335Y-67668833D02*
X162468906Y-67760261D01*
X162468906Y-67760261D02*
X162811763Y-68125976D01*
X162811763Y-68125976D02*
X162440335Y-68125976D01*
X162268906Y-67485976D02*
X162068906Y-68125976D01*
X162068906Y-68125976D02*
X161868906Y-67485976D01*
X227029192Y-51361976D02*
X227314906Y-51361976D01*
X227314906Y-51361976D02*
X227314906Y-50721976D01*
X226829192Y-51361976D02*
X226829192Y-50721976D01*
X226829192Y-50721976D02*
X226600621Y-50721976D01*
X226600621Y-50721976D02*
X226543478Y-50752452D01*
X226543478Y-50752452D02*
X226514907Y-50782928D01*
X226514907Y-50782928D02*
X226486335Y-50843880D01*
X226486335Y-50843880D02*
X226486335Y-50935309D01*
X226486335Y-50935309D02*
X226514907Y-50996261D01*
X226514907Y-50996261D02*
X226543478Y-51026738D01*
X226543478Y-51026738D02*
X226600621Y-51057214D01*
X226600621Y-51057214D02*
X226829192Y-51057214D01*
X227114906Y-52042738D02*
X227029192Y-52073214D01*
X227029192Y-52073214D02*
X227000621Y-52103690D01*
X227000621Y-52103690D02*
X226972049Y-52164642D01*
X226972049Y-52164642D02*
X226972049Y-52256071D01*
X226972049Y-52256071D02*
X227000621Y-52317023D01*
X227000621Y-52317023D02*
X227029192Y-52347500D01*
X227029192Y-52347500D02*
X227086335Y-52377976D01*
X227086335Y-52377976D02*
X227314906Y-52377976D01*
X227314906Y-52377976D02*
X227314906Y-51737976D01*
X227314906Y-51737976D02*
X227114906Y-51737976D01*
X227114906Y-51737976D02*
X227057764Y-51768452D01*
X227057764Y-51768452D02*
X227029192Y-51798928D01*
X227029192Y-51798928D02*
X227000621Y-51859880D01*
X227000621Y-51859880D02*
X227000621Y-51920833D01*
X227000621Y-51920833D02*
X227029192Y-51981785D01*
X227029192Y-51981785D02*
X227057764Y-52012261D01*
X227057764Y-52012261D02*
X227114906Y-52042738D01*
X227114906Y-52042738D02*
X227314906Y-52042738D01*
X226400621Y-52377976D02*
X226743478Y-52377976D01*
X226572049Y-52377976D02*
X226572049Y-51737976D01*
X226572049Y-51737976D02*
X226629192Y-51829404D01*
X226629192Y-51829404D02*
X226686335Y-51890357D01*
X226686335Y-51890357D02*
X226743478Y-51920833D01*
X231378906Y-51361976D02*
X231378906Y-50721976D01*
X231378906Y-50721976D02*
X231178906Y-51179119D01*
X231178906Y-51179119D02*
X230978906Y-50721976D01*
X230978906Y-50721976D02*
X230978906Y-51361976D01*
X230693192Y-51361976D02*
X230693192Y-50721976D01*
X230693192Y-50721976D02*
X230464621Y-50721976D01*
X230464621Y-50721976D02*
X230407478Y-50752452D01*
X230407478Y-50752452D02*
X230378907Y-50782928D01*
X230378907Y-50782928D02*
X230350335Y-50843880D01*
X230350335Y-50843880D02*
X230350335Y-50935309D01*
X230350335Y-50935309D02*
X230378907Y-50996261D01*
X230378907Y-50996261D02*
X230407478Y-51026738D01*
X230407478Y-51026738D02*
X230464621Y-51057214D01*
X230464621Y-51057214D02*
X230693192Y-51057214D01*
X231178906Y-52042738D02*
X231093192Y-52073214D01*
X231093192Y-52073214D02*
X231064621Y-52103690D01*
X231064621Y-52103690D02*
X231036049Y-52164642D01*
X231036049Y-52164642D02*
X231036049Y-52256071D01*
X231036049Y-52256071D02*
X231064621Y-52317023D01*
X231064621Y-52317023D02*
X231093192Y-52347500D01*
X231093192Y-52347500D02*
X231150335Y-52377976D01*
X231150335Y-52377976D02*
X231378906Y-52377976D01*
X231378906Y-52377976D02*
X231378906Y-51737976D01*
X231378906Y-51737976D02*
X231178906Y-51737976D01*
X231178906Y-51737976D02*
X231121764Y-51768452D01*
X231121764Y-51768452D02*
X231093192Y-51798928D01*
X231093192Y-51798928D02*
X231064621Y-51859880D01*
X231064621Y-51859880D02*
X231064621Y-51920833D01*
X231064621Y-51920833D02*
X231093192Y-51981785D01*
X231093192Y-51981785D02*
X231121764Y-52012261D01*
X231121764Y-52012261D02*
X231178906Y-52042738D01*
X231178906Y-52042738D02*
X231378906Y-52042738D01*
X230807478Y-51798928D02*
X230778906Y-51768452D01*
X230778906Y-51768452D02*
X230721764Y-51737976D01*
X230721764Y-51737976D02*
X230578906Y-51737976D01*
X230578906Y-51737976D02*
X230521764Y-51768452D01*
X230521764Y-51768452D02*
X230493192Y-51798928D01*
X230493192Y-51798928D02*
X230464621Y-51859880D01*
X230464621Y-51859880D02*
X230464621Y-51920833D01*
X230464621Y-51920833D02*
X230493192Y-52012261D01*
X230493192Y-52012261D02*
X230836049Y-52377976D01*
X230836049Y-52377976D02*
X230464621Y-52377976D01*
X234903192Y-51361976D02*
X235188906Y-51361976D01*
X235188906Y-51361976D02*
X235188906Y-50721976D01*
X234703192Y-51361976D02*
X234703192Y-50721976D01*
X234360335Y-51361976D02*
X234617478Y-50996261D01*
X234360335Y-50721976D02*
X234703192Y-51087690D01*
X234988906Y-52042738D02*
X234903192Y-52073214D01*
X234903192Y-52073214D02*
X234874621Y-52103690D01*
X234874621Y-52103690D02*
X234846049Y-52164642D01*
X234846049Y-52164642D02*
X234846049Y-52256071D01*
X234846049Y-52256071D02*
X234874621Y-52317023D01*
X234874621Y-52317023D02*
X234903192Y-52347500D01*
X234903192Y-52347500D02*
X234960335Y-52377976D01*
X234960335Y-52377976D02*
X235188906Y-52377976D01*
X235188906Y-52377976D02*
X235188906Y-51737976D01*
X235188906Y-51737976D02*
X234988906Y-51737976D01*
X234988906Y-51737976D02*
X234931764Y-51768452D01*
X234931764Y-51768452D02*
X234903192Y-51798928D01*
X234903192Y-51798928D02*
X234874621Y-51859880D01*
X234874621Y-51859880D02*
X234874621Y-51920833D01*
X234874621Y-51920833D02*
X234903192Y-51981785D01*
X234903192Y-51981785D02*
X234931764Y-52012261D01*
X234931764Y-52012261D02*
X234988906Y-52042738D01*
X234988906Y-52042738D02*
X235188906Y-52042738D01*
X234646049Y-51737976D02*
X234274621Y-51737976D01*
X234274621Y-51737976D02*
X234474621Y-51981785D01*
X234474621Y-51981785D02*
X234388906Y-51981785D01*
X234388906Y-51981785D02*
X234331764Y-52012261D01*
X234331764Y-52012261D02*
X234303192Y-52042738D01*
X234303192Y-52042738D02*
X234274621Y-52103690D01*
X234274621Y-52103690D02*
X234274621Y-52256071D01*
X234274621Y-52256071D02*
X234303192Y-52317023D01*
X234303192Y-52317023D02*
X234331764Y-52347500D01*
X234331764Y-52347500D02*
X234388906Y-52377976D01*
X234388906Y-52377976D02*
X234560335Y-52377976D01*
X234560335Y-52377976D02*
X234617478Y-52347500D01*
X234617478Y-52347500D02*
X234646049Y-52317023D01*
X239252906Y-51361976D02*
X239252906Y-50721976D01*
X239252906Y-50721976D02*
X239052906Y-51179119D01*
X239052906Y-51179119D02*
X238852906Y-50721976D01*
X238852906Y-50721976D02*
X238852906Y-51361976D01*
X238567192Y-51361976D02*
X238567192Y-50721976D01*
X238224335Y-51361976D02*
X238481478Y-50996261D01*
X238224335Y-50721976D02*
X238567192Y-51087690D01*
X239052906Y-52042738D02*
X238967192Y-52073214D01*
X238967192Y-52073214D02*
X238938621Y-52103690D01*
X238938621Y-52103690D02*
X238910049Y-52164642D01*
X238910049Y-52164642D02*
X238910049Y-52256071D01*
X238910049Y-52256071D02*
X238938621Y-52317023D01*
X238938621Y-52317023D02*
X238967192Y-52347500D01*
X238967192Y-52347500D02*
X239024335Y-52377976D01*
X239024335Y-52377976D02*
X239252906Y-52377976D01*
X239252906Y-52377976D02*
X239252906Y-51737976D01*
X239252906Y-51737976D02*
X239052906Y-51737976D01*
X239052906Y-51737976D02*
X238995764Y-51768452D01*
X238995764Y-51768452D02*
X238967192Y-51798928D01*
X238967192Y-51798928D02*
X238938621Y-51859880D01*
X238938621Y-51859880D02*
X238938621Y-51920833D01*
X238938621Y-51920833D02*
X238967192Y-51981785D01*
X238967192Y-51981785D02*
X238995764Y-52012261D01*
X238995764Y-52012261D02*
X239052906Y-52042738D01*
X239052906Y-52042738D02*
X239252906Y-52042738D01*
X238395764Y-51951309D02*
X238395764Y-52377976D01*
X238538621Y-51707500D02*
X238681478Y-52164642D01*
X238681478Y-52164642D02*
X238310049Y-52164642D01*
X243062906Y-51361976D02*
X243062906Y-50721976D01*
X243062906Y-51026738D02*
X242720049Y-51026738D01*
X242720049Y-51361976D02*
X242720049Y-50721976D01*
X242434335Y-51361976D02*
X242434335Y-50721976D01*
X242434335Y-50721976D02*
X242205764Y-50721976D01*
X242205764Y-50721976D02*
X242148621Y-50752452D01*
X242148621Y-50752452D02*
X242120050Y-50782928D01*
X242120050Y-50782928D02*
X242091478Y-50843880D01*
X242091478Y-50843880D02*
X242091478Y-50935309D01*
X242091478Y-50935309D02*
X242120050Y-50996261D01*
X242120050Y-50996261D02*
X242148621Y-51026738D01*
X242148621Y-51026738D02*
X242205764Y-51057214D01*
X242205764Y-51057214D02*
X242434335Y-51057214D01*
X242862906Y-52042738D02*
X242777192Y-52073214D01*
X242777192Y-52073214D02*
X242748621Y-52103690D01*
X242748621Y-52103690D02*
X242720049Y-52164642D01*
X242720049Y-52164642D02*
X242720049Y-52256071D01*
X242720049Y-52256071D02*
X242748621Y-52317023D01*
X242748621Y-52317023D02*
X242777192Y-52347500D01*
X242777192Y-52347500D02*
X242834335Y-52377976D01*
X242834335Y-52377976D02*
X243062906Y-52377976D01*
X243062906Y-52377976D02*
X243062906Y-51737976D01*
X243062906Y-51737976D02*
X242862906Y-51737976D01*
X242862906Y-51737976D02*
X242805764Y-51768452D01*
X242805764Y-51768452D02*
X242777192Y-51798928D01*
X242777192Y-51798928D02*
X242748621Y-51859880D01*
X242748621Y-51859880D02*
X242748621Y-51920833D01*
X242748621Y-51920833D02*
X242777192Y-51981785D01*
X242777192Y-51981785D02*
X242805764Y-52012261D01*
X242805764Y-52012261D02*
X242862906Y-52042738D01*
X242862906Y-52042738D02*
X243062906Y-52042738D01*
X242177192Y-51737976D02*
X242462906Y-51737976D01*
X242462906Y-51737976D02*
X242491478Y-52042738D01*
X242491478Y-52042738D02*
X242462906Y-52012261D01*
X242462906Y-52012261D02*
X242405764Y-51981785D01*
X242405764Y-51981785D02*
X242262906Y-51981785D01*
X242262906Y-51981785D02*
X242205764Y-52012261D01*
X242205764Y-52012261D02*
X242177192Y-52042738D01*
X242177192Y-52042738D02*
X242148621Y-52103690D01*
X242148621Y-52103690D02*
X242148621Y-52256071D01*
X242148621Y-52256071D02*
X242177192Y-52317023D01*
X242177192Y-52317023D02*
X242205764Y-52347500D01*
X242205764Y-52347500D02*
X242262906Y-52377976D01*
X242262906Y-52377976D02*
X242405764Y-52377976D01*
X242405764Y-52377976D02*
X242462906Y-52347500D01*
X242462906Y-52347500D02*
X242491478Y-52317023D01*
X247126906Y-51361976D02*
X247126906Y-50721976D01*
X247126906Y-51026738D02*
X246784049Y-51026738D01*
X246784049Y-51361976D02*
X246784049Y-50721976D01*
X246498335Y-51361976D02*
X246498335Y-50721976D01*
X246155478Y-51361976D02*
X246412621Y-50996261D01*
X246155478Y-50721976D02*
X246498335Y-51087690D01*
X246926906Y-52042738D02*
X246841192Y-52073214D01*
X246841192Y-52073214D02*
X246812621Y-52103690D01*
X246812621Y-52103690D02*
X246784049Y-52164642D01*
X246784049Y-52164642D02*
X246784049Y-52256071D01*
X246784049Y-52256071D02*
X246812621Y-52317023D01*
X246812621Y-52317023D02*
X246841192Y-52347500D01*
X246841192Y-52347500D02*
X246898335Y-52377976D01*
X246898335Y-52377976D02*
X247126906Y-52377976D01*
X247126906Y-52377976D02*
X247126906Y-51737976D01*
X247126906Y-51737976D02*
X246926906Y-51737976D01*
X246926906Y-51737976D02*
X246869764Y-51768452D01*
X246869764Y-51768452D02*
X246841192Y-51798928D01*
X246841192Y-51798928D02*
X246812621Y-51859880D01*
X246812621Y-51859880D02*
X246812621Y-51920833D01*
X246812621Y-51920833D02*
X246841192Y-51981785D01*
X246841192Y-51981785D02*
X246869764Y-52012261D01*
X246869764Y-52012261D02*
X246926906Y-52042738D01*
X246926906Y-52042738D02*
X247126906Y-52042738D01*
X246269764Y-51737976D02*
X246384049Y-51737976D01*
X246384049Y-51737976D02*
X246441192Y-51768452D01*
X246441192Y-51768452D02*
X246469764Y-51798928D01*
X246469764Y-51798928D02*
X246526906Y-51890357D01*
X246526906Y-51890357D02*
X246555478Y-52012261D01*
X246555478Y-52012261D02*
X246555478Y-52256071D01*
X246555478Y-52256071D02*
X246526906Y-52317023D01*
X246526906Y-52317023D02*
X246498335Y-52347500D01*
X246498335Y-52347500D02*
X246441192Y-52377976D01*
X246441192Y-52377976D02*
X246326906Y-52377976D01*
X246326906Y-52377976D02*
X246269764Y-52347500D01*
X246269764Y-52347500D02*
X246241192Y-52317023D01*
X246241192Y-52317023D02*
X246212621Y-52256071D01*
X246212621Y-52256071D02*
X246212621Y-52103690D01*
X246212621Y-52103690D02*
X246241192Y-52042738D01*
X246241192Y-52042738D02*
X246269764Y-52012261D01*
X246269764Y-52012261D02*
X246326906Y-51981785D01*
X246326906Y-51981785D02*
X246441192Y-51981785D01*
X246441192Y-51981785D02*
X246498335Y-52012261D01*
X246498335Y-52012261D02*
X246526906Y-52042738D01*
X246526906Y-52042738D02*
X246555478Y-52103690D01*
M02*
