%TF.GenerationSoftware,KiCad,Pcbnew,10.0.6*%
%TF.CreationDate,2026-09-16T16:30:29+02:00*%
%TF.ProjectId,Jamma SuperGun CPS1 Harness,4a616d6d-6120-4537-9570-657247756e20,rev?*%
%TF.SameCoordinates,Original*%
%TF.FileFunction,Legend,Top*%
%TF.FilePolarity,Positive*%
%FSLAX46Y46*%
G04 Gerber Fmt 4.6, Leading zero omitted, Abs format (unit mm)*
G04 Created by KiCad (PCBNEW 10.0.6) date 2026-09-16 16:30:29*
%MOMM*%
%LPD*%
G01*
G04 APERTURE LIST*
%ADD10C,0.100000*%
%ADD11C,0.125000*%
%ADD12C,0.150000*%
%ADD13C,0.120000*%
G04 APERTURE END LIST*
D10*
X177756000Y-58937000D02*
X178518000Y-59699000D01*
X177756000Y-60461000D01*
X177756000Y-58937000D01*
G36*
X178518000Y-59699000D02*
G01*
X177756000Y-60461000D01*
X177756000Y-58937000D01*
X178518000Y-59699000D01*
G37*
X170136000Y-57794000D02*
X174708000Y-57794000D01*
X174708000Y-61604000D01*
X170136000Y-61604000D01*
X170136000Y-57794000D01*
X174708000Y-57794000D02*
X176994000Y-57794000D01*
X176994000Y-61604000D01*
X174708000Y-61604000D01*
X174708000Y-57794000D01*
X179280000Y-57794000D02*
X186138000Y-57794000D01*
X186138000Y-59572000D01*
X179280000Y-59572000D01*
X179280000Y-57794000D01*
X179280000Y-59826000D02*
X186138000Y-59826000D01*
X186138000Y-61604000D01*
X179280000Y-61604000D01*
X179280000Y-59826000D01*
X225254000Y-62366000D02*
X232874000Y-62366000D01*
X232874000Y-65668000D01*
X225254000Y-65668000D01*
X225254000Y-62366000D01*
X235414000Y-62366000D02*
X243034000Y-62366000D01*
X243034000Y-65668000D01*
X235414000Y-65668000D01*
X235414000Y-62366000D01*
D11*
X143243378Y-50752452D02*
X143186236Y-50721976D01*
X143186236Y-50721976D02*
X143100521Y-50721976D01*
X143100521Y-50721976D02*
X143014807Y-50752452D01*
X143014807Y-50752452D02*
X142957664Y-50813404D01*
X142957664Y-50813404D02*
X142929093Y-50874357D01*
X142929093Y-50874357D02*
X142900521Y-50996261D01*
X142900521Y-50996261D02*
X142900521Y-51087690D01*
X142900521Y-51087690D02*
X142929093Y-51209595D01*
X142929093Y-51209595D02*
X142957664Y-51270547D01*
X142957664Y-51270547D02*
X143014807Y-51331500D01*
X143014807Y-51331500D02*
X143100521Y-51361976D01*
X143100521Y-51361976D02*
X143157664Y-51361976D01*
X143157664Y-51361976D02*
X143243378Y-51331500D01*
X143243378Y-51331500D02*
X143271950Y-51301023D01*
X143271950Y-51301023D02*
X143271950Y-51087690D01*
X143271950Y-51087690D02*
X143157664Y-51087690D01*
X143529093Y-51361976D02*
X143529093Y-50721976D01*
X143529093Y-50721976D02*
X143871950Y-51361976D01*
X143871950Y-51361976D02*
X143871950Y-50721976D01*
X144157664Y-51361976D02*
X144157664Y-50721976D01*
X144157664Y-50721976D02*
X144300521Y-50721976D01*
X144300521Y-50721976D02*
X144386235Y-50752452D01*
X144386235Y-50752452D02*
X144443378Y-50813404D01*
X144443378Y-50813404D02*
X144471949Y-50874357D01*
X144471949Y-50874357D02*
X144500521Y-50996261D01*
X144500521Y-50996261D02*
X144500521Y-51087690D01*
X144500521Y-51087690D02*
X144471949Y-51209595D01*
X144471949Y-51209595D02*
X144443378Y-51270547D01*
X144443378Y-51270547D02*
X144386235Y-51331500D01*
X144386235Y-51331500D02*
X144300521Y-51361976D01*
X144300521Y-51361976D02*
X144157664Y-51361976D01*
X143243378Y-67516452D02*
X143186236Y-67485976D01*
X143186236Y-67485976D02*
X143100521Y-67485976D01*
X143100521Y-67485976D02*
X143014807Y-67516452D01*
X143014807Y-67516452D02*
X142957664Y-67577404D01*
X142957664Y-67577404D02*
X142929093Y-67638357D01*
X142929093Y-67638357D02*
X142900521Y-67760261D01*
X142900521Y-67760261D02*
X142900521Y-67851690D01*
X142900521Y-67851690D02*
X142929093Y-67973595D01*
X142929093Y-67973595D02*
X142957664Y-68034547D01*
X142957664Y-68034547D02*
X143014807Y-68095500D01*
X143014807Y-68095500D02*
X143100521Y-68125976D01*
X143100521Y-68125976D02*
X143157664Y-68125976D01*
X143157664Y-68125976D02*
X143243378Y-68095500D01*
X143243378Y-68095500D02*
X143271950Y-68065023D01*
X143271950Y-68065023D02*
X143271950Y-67851690D01*
X143271950Y-67851690D02*
X143157664Y-67851690D01*
X143529093Y-68125976D02*
X143529093Y-67485976D01*
X143529093Y-67485976D02*
X143871950Y-68125976D01*
X143871950Y-68125976D02*
X143871950Y-67485976D01*
X144157664Y-68125976D02*
X144157664Y-67485976D01*
X144157664Y-67485976D02*
X144300521Y-67485976D01*
X144300521Y-67485976D02*
X144386235Y-67516452D01*
X144386235Y-67516452D02*
X144443378Y-67577404D01*
X144443378Y-67577404D02*
X144471949Y-67638357D01*
X144471949Y-67638357D02*
X144500521Y-67760261D01*
X144500521Y-67760261D02*
X144500521Y-67851690D01*
X144500521Y-67851690D02*
X144471949Y-67973595D01*
X144471949Y-67973595D02*
X144443378Y-68034547D01*
X144443378Y-68034547D02*
X144386235Y-68095500D01*
X144386235Y-68095500D02*
X144300521Y-68125976D01*
X144300521Y-68125976D02*
X144157664Y-68125976D01*
X147307378Y-50752452D02*
X147250236Y-50721976D01*
X147250236Y-50721976D02*
X147164521Y-50721976D01*
X147164521Y-50721976D02*
X147078807Y-50752452D01*
X147078807Y-50752452D02*
X147021664Y-50813404D01*
X147021664Y-50813404D02*
X146993093Y-50874357D01*
X146993093Y-50874357D02*
X146964521Y-50996261D01*
X146964521Y-50996261D02*
X146964521Y-51087690D01*
X146964521Y-51087690D02*
X146993093Y-51209595D01*
X146993093Y-51209595D02*
X147021664Y-51270547D01*
X147021664Y-51270547D02*
X147078807Y-51331500D01*
X147078807Y-51331500D02*
X147164521Y-51361976D01*
X147164521Y-51361976D02*
X147221664Y-51361976D01*
X147221664Y-51361976D02*
X147307378Y-51331500D01*
X147307378Y-51331500D02*
X147335950Y-51301023D01*
X147335950Y-51301023D02*
X147335950Y-51087690D01*
X147335950Y-51087690D02*
X147221664Y-51087690D01*
X147593093Y-51361976D02*
X147593093Y-50721976D01*
X147593093Y-50721976D02*
X147935950Y-51361976D01*
X147935950Y-51361976D02*
X147935950Y-50721976D01*
X148221664Y-51361976D02*
X148221664Y-50721976D01*
X148221664Y-50721976D02*
X148364521Y-50721976D01*
X148364521Y-50721976D02*
X148450235Y-50752452D01*
X148450235Y-50752452D02*
X148507378Y-50813404D01*
X148507378Y-50813404D02*
X148535949Y-50874357D01*
X148535949Y-50874357D02*
X148564521Y-50996261D01*
X148564521Y-50996261D02*
X148564521Y-51087690D01*
X148564521Y-51087690D02*
X148535949Y-51209595D01*
X148535949Y-51209595D02*
X148507378Y-51270547D01*
X148507378Y-51270547D02*
X148450235Y-51331500D01*
X148450235Y-51331500D02*
X148364521Y-51361976D01*
X148364521Y-51361976D02*
X148221664Y-51361976D01*
X147307378Y-67516452D02*
X147250236Y-67485976D01*
X147250236Y-67485976D02*
X147164521Y-67485976D01*
X147164521Y-67485976D02*
X147078807Y-67516452D01*
X147078807Y-67516452D02*
X147021664Y-67577404D01*
X147021664Y-67577404D02*
X146993093Y-67638357D01*
X146993093Y-67638357D02*
X146964521Y-67760261D01*
X146964521Y-67760261D02*
X146964521Y-67851690D01*
X146964521Y-67851690D02*
X146993093Y-67973595D01*
X146993093Y-67973595D02*
X147021664Y-68034547D01*
X147021664Y-68034547D02*
X147078807Y-68095500D01*
X147078807Y-68095500D02*
X147164521Y-68125976D01*
X147164521Y-68125976D02*
X147221664Y-68125976D01*
X147221664Y-68125976D02*
X147307378Y-68095500D01*
X147307378Y-68095500D02*
X147335950Y-68065023D01*
X147335950Y-68065023D02*
X147335950Y-67851690D01*
X147335950Y-67851690D02*
X147221664Y-67851690D01*
X147593093Y-68125976D02*
X147593093Y-67485976D01*
X147593093Y-67485976D02*
X147935950Y-68125976D01*
X147935950Y-68125976D02*
X147935950Y-67485976D01*
X148221664Y-68125976D02*
X148221664Y-67485976D01*
X148221664Y-67485976D02*
X148364521Y-67485976D01*
X148364521Y-67485976D02*
X148450235Y-67516452D01*
X148450235Y-67516452D02*
X148507378Y-67577404D01*
X148507378Y-67577404D02*
X148535949Y-67638357D01*
X148535949Y-67638357D02*
X148564521Y-67760261D01*
X148564521Y-67760261D02*
X148564521Y-67851690D01*
X148564521Y-67851690D02*
X148535949Y-67973595D01*
X148535949Y-67973595D02*
X148507378Y-68034547D01*
X148507378Y-68034547D02*
X148450235Y-68095500D01*
X148450235Y-68095500D02*
X148364521Y-68125976D01*
X148364521Y-68125976D02*
X148221664Y-68125976D01*
X150803093Y-51118166D02*
X151260236Y-51118166D01*
X151031664Y-51361976D02*
X151031664Y-50874357D01*
X151831664Y-50721976D02*
X151545950Y-50721976D01*
X151545950Y-50721976D02*
X151517378Y-51026738D01*
X151517378Y-51026738D02*
X151545950Y-50996261D01*
X151545950Y-50996261D02*
X151603093Y-50965785D01*
X151603093Y-50965785D02*
X151745950Y-50965785D01*
X151745950Y-50965785D02*
X151803093Y-50996261D01*
X151803093Y-50996261D02*
X151831664Y-51026738D01*
X151831664Y-51026738D02*
X151860235Y-51087690D01*
X151860235Y-51087690D02*
X151860235Y-51240071D01*
X151860235Y-51240071D02*
X151831664Y-51301023D01*
X151831664Y-51301023D02*
X151803093Y-51331500D01*
X151803093Y-51331500D02*
X151745950Y-51361976D01*
X151745950Y-51361976D02*
X151603093Y-51361976D01*
X151603093Y-51361976D02*
X151545950Y-51331500D01*
X151545950Y-51331500D02*
X151517378Y-51301023D01*
X152031664Y-50721976D02*
X152231664Y-51361976D01*
X152231664Y-51361976D02*
X152431664Y-50721976D01*
X150803093Y-67882166D02*
X151260236Y-67882166D01*
X151031664Y-68125976D02*
X151031664Y-67638357D01*
X151831664Y-67485976D02*
X151545950Y-67485976D01*
X151545950Y-67485976D02*
X151517378Y-67790738D01*
X151517378Y-67790738D02*
X151545950Y-67760261D01*
X151545950Y-67760261D02*
X151603093Y-67729785D01*
X151603093Y-67729785D02*
X151745950Y-67729785D01*
X151745950Y-67729785D02*
X151803093Y-67760261D01*
X151803093Y-67760261D02*
X151831664Y-67790738D01*
X151831664Y-67790738D02*
X151860235Y-67851690D01*
X151860235Y-67851690D02*
X151860235Y-68004071D01*
X151860235Y-68004071D02*
X151831664Y-68065023D01*
X151831664Y-68065023D02*
X151803093Y-68095500D01*
X151803093Y-68095500D02*
X151745950Y-68125976D01*
X151745950Y-68125976D02*
X151603093Y-68125976D01*
X151603093Y-68125976D02*
X151545950Y-68095500D01*
X151545950Y-68095500D02*
X151517378Y-68065023D01*
X152031664Y-67485976D02*
X152231664Y-68125976D01*
X152231664Y-68125976D02*
X152431664Y-67485976D01*
X154867093Y-51118166D02*
X155324236Y-51118166D01*
X155095664Y-51361976D02*
X155095664Y-50874357D01*
X155895664Y-50721976D02*
X155609950Y-50721976D01*
X155609950Y-50721976D02*
X155581378Y-51026738D01*
X155581378Y-51026738D02*
X155609950Y-50996261D01*
X155609950Y-50996261D02*
X155667093Y-50965785D01*
X155667093Y-50965785D02*
X155809950Y-50965785D01*
X155809950Y-50965785D02*
X155867093Y-50996261D01*
X155867093Y-50996261D02*
X155895664Y-51026738D01*
X155895664Y-51026738D02*
X155924235Y-51087690D01*
X155924235Y-51087690D02*
X155924235Y-51240071D01*
X155924235Y-51240071D02*
X155895664Y-51301023D01*
X155895664Y-51301023D02*
X155867093Y-51331500D01*
X155867093Y-51331500D02*
X155809950Y-51361976D01*
X155809950Y-51361976D02*
X155667093Y-51361976D01*
X155667093Y-51361976D02*
X155609950Y-51331500D01*
X155609950Y-51331500D02*
X155581378Y-51301023D01*
X156095664Y-50721976D02*
X156295664Y-51361976D01*
X156295664Y-51361976D02*
X156495664Y-50721976D01*
X154867093Y-67882166D02*
X155324236Y-67882166D01*
X155095664Y-68125976D02*
X155095664Y-67638357D01*
X155895664Y-67485976D02*
X155609950Y-67485976D01*
X155609950Y-67485976D02*
X155581378Y-67790738D01*
X155581378Y-67790738D02*
X155609950Y-67760261D01*
X155609950Y-67760261D02*
X155667093Y-67729785D01*
X155667093Y-67729785D02*
X155809950Y-67729785D01*
X155809950Y-67729785D02*
X155867093Y-67760261D01*
X155867093Y-67760261D02*
X155895664Y-67790738D01*
X155895664Y-67790738D02*
X155924235Y-67851690D01*
X155924235Y-67851690D02*
X155924235Y-68004071D01*
X155924235Y-68004071D02*
X155895664Y-68065023D01*
X155895664Y-68065023D02*
X155867093Y-68095500D01*
X155867093Y-68095500D02*
X155809950Y-68125976D01*
X155809950Y-68125976D02*
X155667093Y-68125976D01*
X155667093Y-68125976D02*
X155609950Y-68095500D01*
X155609950Y-68095500D02*
X155581378Y-68065023D01*
X156095664Y-67485976D02*
X156295664Y-68125976D01*
X156295664Y-68125976D02*
X156495664Y-67485976D01*
X158677093Y-51118166D02*
X159134236Y-51118166D01*
X159705664Y-50721976D02*
X159419950Y-50721976D01*
X159419950Y-50721976D02*
X159391378Y-51026738D01*
X159391378Y-51026738D02*
X159419950Y-50996261D01*
X159419950Y-50996261D02*
X159477093Y-50965785D01*
X159477093Y-50965785D02*
X159619950Y-50965785D01*
X159619950Y-50965785D02*
X159677093Y-50996261D01*
X159677093Y-50996261D02*
X159705664Y-51026738D01*
X159705664Y-51026738D02*
X159734235Y-51087690D01*
X159734235Y-51087690D02*
X159734235Y-51240071D01*
X159734235Y-51240071D02*
X159705664Y-51301023D01*
X159705664Y-51301023D02*
X159677093Y-51331500D01*
X159677093Y-51331500D02*
X159619950Y-51361976D01*
X159619950Y-51361976D02*
X159477093Y-51361976D01*
X159477093Y-51361976D02*
X159419950Y-51331500D01*
X159419950Y-51331500D02*
X159391378Y-51301023D01*
X159905664Y-50721976D02*
X160105664Y-51361976D01*
X160105664Y-51361976D02*
X160305664Y-50721976D01*
X158677093Y-67882166D02*
X159134236Y-67882166D01*
X159705664Y-67485976D02*
X159419950Y-67485976D01*
X159419950Y-67485976D02*
X159391378Y-67790738D01*
X159391378Y-67790738D02*
X159419950Y-67760261D01*
X159419950Y-67760261D02*
X159477093Y-67729785D01*
X159477093Y-67729785D02*
X159619950Y-67729785D01*
X159619950Y-67729785D02*
X159677093Y-67760261D01*
X159677093Y-67760261D02*
X159705664Y-67790738D01*
X159705664Y-67790738D02*
X159734235Y-67851690D01*
X159734235Y-67851690D02*
X159734235Y-68004071D01*
X159734235Y-68004071D02*
X159705664Y-68065023D01*
X159705664Y-68065023D02*
X159677093Y-68095500D01*
X159677093Y-68095500D02*
X159619950Y-68125976D01*
X159619950Y-68125976D02*
X159477093Y-68125976D01*
X159477093Y-68125976D02*
X159419950Y-68095500D01*
X159419950Y-68095500D02*
X159391378Y-68065023D01*
X159905664Y-67485976D02*
X160105664Y-68125976D01*
X160105664Y-68125976D02*
X160305664Y-67485976D01*
X162487093Y-51118166D02*
X162944236Y-51118166D01*
X162715664Y-51361976D02*
X162715664Y-50874357D01*
X163544235Y-51361976D02*
X163201378Y-51361976D01*
X163372807Y-51361976D02*
X163372807Y-50721976D01*
X163372807Y-50721976D02*
X163315664Y-50813404D01*
X163315664Y-50813404D02*
X163258521Y-50874357D01*
X163258521Y-50874357D02*
X163201378Y-50904833D01*
X163772807Y-50782928D02*
X163801379Y-50752452D01*
X163801379Y-50752452D02*
X163858522Y-50721976D01*
X163858522Y-50721976D02*
X164001379Y-50721976D01*
X164001379Y-50721976D02*
X164058522Y-50752452D01*
X164058522Y-50752452D02*
X164087093Y-50782928D01*
X164087093Y-50782928D02*
X164115664Y-50843880D01*
X164115664Y-50843880D02*
X164115664Y-50904833D01*
X164115664Y-50904833D02*
X164087093Y-50996261D01*
X164087093Y-50996261D02*
X163744236Y-51361976D01*
X163744236Y-51361976D02*
X164115664Y-51361976D01*
X164287093Y-50721976D02*
X164487093Y-51361976D01*
X164487093Y-51361976D02*
X164687093Y-50721976D01*
X162487093Y-67882166D02*
X162944236Y-67882166D01*
X162715664Y-68125976D02*
X162715664Y-67638357D01*
X163544235Y-68125976D02*
X163201378Y-68125976D01*
X163372807Y-68125976D02*
X163372807Y-67485976D01*
X163372807Y-67485976D02*
X163315664Y-67577404D01*
X163315664Y-67577404D02*
X163258521Y-67638357D01*
X163258521Y-67638357D02*
X163201378Y-67668833D01*
X163772807Y-67546928D02*
X163801379Y-67516452D01*
X163801379Y-67516452D02*
X163858522Y-67485976D01*
X163858522Y-67485976D02*
X164001379Y-67485976D01*
X164001379Y-67485976D02*
X164058522Y-67516452D01*
X164058522Y-67516452D02*
X164087093Y-67546928D01*
X164087093Y-67546928D02*
X164115664Y-67607880D01*
X164115664Y-67607880D02*
X164115664Y-67668833D01*
X164115664Y-67668833D02*
X164087093Y-67760261D01*
X164087093Y-67760261D02*
X163744236Y-68125976D01*
X163744236Y-68125976D02*
X164115664Y-68125976D01*
X164287093Y-67485976D02*
X164487093Y-68125976D01*
X164487093Y-68125976D02*
X164687093Y-67485976D01*
X226780807Y-51361976D02*
X226495093Y-51361976D01*
X226495093Y-51361976D02*
X226495093Y-50721976D01*
X226980807Y-51361976D02*
X226980807Y-50721976D01*
X226980807Y-50721976D02*
X227209378Y-50721976D01*
X227209378Y-50721976D02*
X227266521Y-50752452D01*
X227266521Y-50752452D02*
X227295092Y-50782928D01*
X227295092Y-50782928D02*
X227323664Y-50843880D01*
X227323664Y-50843880D02*
X227323664Y-50935309D01*
X227323664Y-50935309D02*
X227295092Y-50996261D01*
X227295092Y-50996261D02*
X227266521Y-51026738D01*
X227266521Y-51026738D02*
X227209378Y-51057214D01*
X227209378Y-51057214D02*
X226980807Y-51057214D01*
X226695093Y-52042738D02*
X226780807Y-52073214D01*
X226780807Y-52073214D02*
X226809378Y-52103690D01*
X226809378Y-52103690D02*
X226837950Y-52164642D01*
X226837950Y-52164642D02*
X226837950Y-52256071D01*
X226837950Y-52256071D02*
X226809378Y-52317023D01*
X226809378Y-52317023D02*
X226780807Y-52347500D01*
X226780807Y-52347500D02*
X226723664Y-52377976D01*
X226723664Y-52377976D02*
X226495093Y-52377976D01*
X226495093Y-52377976D02*
X226495093Y-51737976D01*
X226495093Y-51737976D02*
X226695093Y-51737976D01*
X226695093Y-51737976D02*
X226752236Y-51768452D01*
X226752236Y-51768452D02*
X226780807Y-51798928D01*
X226780807Y-51798928D02*
X226809378Y-51859880D01*
X226809378Y-51859880D02*
X226809378Y-51920833D01*
X226809378Y-51920833D02*
X226780807Y-51981785D01*
X226780807Y-51981785D02*
X226752236Y-52012261D01*
X226752236Y-52012261D02*
X226695093Y-52042738D01*
X226695093Y-52042738D02*
X226495093Y-52042738D01*
X227409378Y-52377976D02*
X227066521Y-52377976D01*
X227237950Y-52377976D02*
X227237950Y-51737976D01*
X227237950Y-51737976D02*
X227180807Y-51829404D01*
X227180807Y-51829404D02*
X227123664Y-51890357D01*
X227123664Y-51890357D02*
X227066521Y-51920833D01*
X230559093Y-51361976D02*
X230559093Y-50721976D01*
X230559093Y-50721976D02*
X230759093Y-51179119D01*
X230759093Y-51179119D02*
X230959093Y-50721976D01*
X230959093Y-50721976D02*
X230959093Y-51361976D01*
X231244807Y-51361976D02*
X231244807Y-50721976D01*
X231244807Y-50721976D02*
X231473378Y-50721976D01*
X231473378Y-50721976D02*
X231530521Y-50752452D01*
X231530521Y-50752452D02*
X231559092Y-50782928D01*
X231559092Y-50782928D02*
X231587664Y-50843880D01*
X231587664Y-50843880D02*
X231587664Y-50935309D01*
X231587664Y-50935309D02*
X231559092Y-50996261D01*
X231559092Y-50996261D02*
X231530521Y-51026738D01*
X231530521Y-51026738D02*
X231473378Y-51057214D01*
X231473378Y-51057214D02*
X231244807Y-51057214D01*
X230759093Y-52042738D02*
X230844807Y-52073214D01*
X230844807Y-52073214D02*
X230873378Y-52103690D01*
X230873378Y-52103690D02*
X230901950Y-52164642D01*
X230901950Y-52164642D02*
X230901950Y-52256071D01*
X230901950Y-52256071D02*
X230873378Y-52317023D01*
X230873378Y-52317023D02*
X230844807Y-52347500D01*
X230844807Y-52347500D02*
X230787664Y-52377976D01*
X230787664Y-52377976D02*
X230559093Y-52377976D01*
X230559093Y-52377976D02*
X230559093Y-51737976D01*
X230559093Y-51737976D02*
X230759093Y-51737976D01*
X230759093Y-51737976D02*
X230816236Y-51768452D01*
X230816236Y-51768452D02*
X230844807Y-51798928D01*
X230844807Y-51798928D02*
X230873378Y-51859880D01*
X230873378Y-51859880D02*
X230873378Y-51920833D01*
X230873378Y-51920833D02*
X230844807Y-51981785D01*
X230844807Y-51981785D02*
X230816236Y-52012261D01*
X230816236Y-52012261D02*
X230759093Y-52042738D01*
X230759093Y-52042738D02*
X230559093Y-52042738D01*
X231130521Y-51798928D02*
X231159093Y-51768452D01*
X231159093Y-51768452D02*
X231216236Y-51737976D01*
X231216236Y-51737976D02*
X231359093Y-51737976D01*
X231359093Y-51737976D02*
X231416236Y-51768452D01*
X231416236Y-51768452D02*
X231444807Y-51798928D01*
X231444807Y-51798928D02*
X231473378Y-51859880D01*
X231473378Y-51859880D02*
X231473378Y-51920833D01*
X231473378Y-51920833D02*
X231444807Y-52012261D01*
X231444807Y-52012261D02*
X231101950Y-52377976D01*
X231101950Y-52377976D02*
X231473378Y-52377976D01*
X234654807Y-51361976D02*
X234369093Y-51361976D01*
X234369093Y-51361976D02*
X234369093Y-50721976D01*
X234854807Y-51361976D02*
X234854807Y-50721976D01*
X235197664Y-51361976D02*
X234940521Y-50996261D01*
X235197664Y-50721976D02*
X234854807Y-51087690D01*
X234569093Y-52042738D02*
X234654807Y-52073214D01*
X234654807Y-52073214D02*
X234683378Y-52103690D01*
X234683378Y-52103690D02*
X234711950Y-52164642D01*
X234711950Y-52164642D02*
X234711950Y-52256071D01*
X234711950Y-52256071D02*
X234683378Y-52317023D01*
X234683378Y-52317023D02*
X234654807Y-52347500D01*
X234654807Y-52347500D02*
X234597664Y-52377976D01*
X234597664Y-52377976D02*
X234369093Y-52377976D01*
X234369093Y-52377976D02*
X234369093Y-51737976D01*
X234369093Y-51737976D02*
X234569093Y-51737976D01*
X234569093Y-51737976D02*
X234626236Y-51768452D01*
X234626236Y-51768452D02*
X234654807Y-51798928D01*
X234654807Y-51798928D02*
X234683378Y-51859880D01*
X234683378Y-51859880D02*
X234683378Y-51920833D01*
X234683378Y-51920833D02*
X234654807Y-51981785D01*
X234654807Y-51981785D02*
X234626236Y-52012261D01*
X234626236Y-52012261D02*
X234569093Y-52042738D01*
X234569093Y-52042738D02*
X234369093Y-52042738D01*
X234911950Y-51737976D02*
X235283378Y-51737976D01*
X235283378Y-51737976D02*
X235083378Y-51981785D01*
X235083378Y-51981785D02*
X235169093Y-51981785D01*
X235169093Y-51981785D02*
X235226236Y-52012261D01*
X235226236Y-52012261D02*
X235254807Y-52042738D01*
X235254807Y-52042738D02*
X235283378Y-52103690D01*
X235283378Y-52103690D02*
X235283378Y-52256071D01*
X235283378Y-52256071D02*
X235254807Y-52317023D01*
X235254807Y-52317023D02*
X235226236Y-52347500D01*
X235226236Y-52347500D02*
X235169093Y-52377976D01*
X235169093Y-52377976D02*
X234997664Y-52377976D01*
X234997664Y-52377976D02*
X234940521Y-52347500D01*
X234940521Y-52347500D02*
X234911950Y-52317023D01*
X238433093Y-51361976D02*
X238433093Y-50721976D01*
X238433093Y-50721976D02*
X238633093Y-51179119D01*
X238633093Y-51179119D02*
X238833093Y-50721976D01*
X238833093Y-50721976D02*
X238833093Y-51361976D01*
X239118807Y-51361976D02*
X239118807Y-50721976D01*
X239461664Y-51361976D02*
X239204521Y-50996261D01*
X239461664Y-50721976D02*
X239118807Y-51087690D01*
X238633093Y-52042738D02*
X238718807Y-52073214D01*
X238718807Y-52073214D02*
X238747378Y-52103690D01*
X238747378Y-52103690D02*
X238775950Y-52164642D01*
X238775950Y-52164642D02*
X238775950Y-52256071D01*
X238775950Y-52256071D02*
X238747378Y-52317023D01*
X238747378Y-52317023D02*
X238718807Y-52347500D01*
X238718807Y-52347500D02*
X238661664Y-52377976D01*
X238661664Y-52377976D02*
X238433093Y-52377976D01*
X238433093Y-52377976D02*
X238433093Y-51737976D01*
X238433093Y-51737976D02*
X238633093Y-51737976D01*
X238633093Y-51737976D02*
X238690236Y-51768452D01*
X238690236Y-51768452D02*
X238718807Y-51798928D01*
X238718807Y-51798928D02*
X238747378Y-51859880D01*
X238747378Y-51859880D02*
X238747378Y-51920833D01*
X238747378Y-51920833D02*
X238718807Y-51981785D01*
X238718807Y-51981785D02*
X238690236Y-52012261D01*
X238690236Y-52012261D02*
X238633093Y-52042738D01*
X238633093Y-52042738D02*
X238433093Y-52042738D01*
X239290236Y-51951309D02*
X239290236Y-52377976D01*
X239147378Y-51707500D02*
X239004521Y-52164642D01*
X239004521Y-52164642D02*
X239375950Y-52164642D01*
X242243093Y-51361976D02*
X242243093Y-50721976D01*
X242243093Y-51026738D02*
X242585950Y-51026738D01*
X242585950Y-51361976D02*
X242585950Y-50721976D01*
X242871664Y-51361976D02*
X242871664Y-50721976D01*
X242871664Y-50721976D02*
X243100235Y-50721976D01*
X243100235Y-50721976D02*
X243157378Y-50752452D01*
X243157378Y-50752452D02*
X243185949Y-50782928D01*
X243185949Y-50782928D02*
X243214521Y-50843880D01*
X243214521Y-50843880D02*
X243214521Y-50935309D01*
X243214521Y-50935309D02*
X243185949Y-50996261D01*
X243185949Y-50996261D02*
X243157378Y-51026738D01*
X243157378Y-51026738D02*
X243100235Y-51057214D01*
X243100235Y-51057214D02*
X242871664Y-51057214D01*
X242443093Y-52042738D02*
X242528807Y-52073214D01*
X242528807Y-52073214D02*
X242557378Y-52103690D01*
X242557378Y-52103690D02*
X242585950Y-52164642D01*
X242585950Y-52164642D02*
X242585950Y-52256071D01*
X242585950Y-52256071D02*
X242557378Y-52317023D01*
X242557378Y-52317023D02*
X242528807Y-52347500D01*
X242528807Y-52347500D02*
X242471664Y-52377976D01*
X242471664Y-52377976D02*
X242243093Y-52377976D01*
X242243093Y-52377976D02*
X242243093Y-51737976D01*
X242243093Y-51737976D02*
X242443093Y-51737976D01*
X242443093Y-51737976D02*
X242500236Y-51768452D01*
X242500236Y-51768452D02*
X242528807Y-51798928D01*
X242528807Y-51798928D02*
X242557378Y-51859880D01*
X242557378Y-51859880D02*
X242557378Y-51920833D01*
X242557378Y-51920833D02*
X242528807Y-51981785D01*
X242528807Y-51981785D02*
X242500236Y-52012261D01*
X242500236Y-52012261D02*
X242443093Y-52042738D01*
X242443093Y-52042738D02*
X242243093Y-52042738D01*
X243128807Y-51737976D02*
X242843093Y-51737976D01*
X242843093Y-51737976D02*
X242814521Y-52042738D01*
X242814521Y-52042738D02*
X242843093Y-52012261D01*
X242843093Y-52012261D02*
X242900236Y-51981785D01*
X242900236Y-51981785D02*
X243043093Y-51981785D01*
X243043093Y-51981785D02*
X243100236Y-52012261D01*
X243100236Y-52012261D02*
X243128807Y-52042738D01*
X243128807Y-52042738D02*
X243157378Y-52103690D01*
X243157378Y-52103690D02*
X243157378Y-52256071D01*
X243157378Y-52256071D02*
X243128807Y-52317023D01*
X243128807Y-52317023D02*
X243100236Y-52347500D01*
X243100236Y-52347500D02*
X243043093Y-52377976D01*
X243043093Y-52377976D02*
X242900236Y-52377976D01*
X242900236Y-52377976D02*
X242843093Y-52347500D01*
X242843093Y-52347500D02*
X242814521Y-52317023D01*
X246307093Y-51361976D02*
X246307093Y-50721976D01*
X246307093Y-51026738D02*
X246649950Y-51026738D01*
X246649950Y-51361976D02*
X246649950Y-50721976D01*
X246935664Y-51361976D02*
X246935664Y-50721976D01*
X247278521Y-51361976D02*
X247021378Y-50996261D01*
X247278521Y-50721976D02*
X246935664Y-51087690D01*
X246507093Y-52042738D02*
X246592807Y-52073214D01*
X246592807Y-52073214D02*
X246621378Y-52103690D01*
X246621378Y-52103690D02*
X246649950Y-52164642D01*
X246649950Y-52164642D02*
X246649950Y-52256071D01*
X246649950Y-52256071D02*
X246621378Y-52317023D01*
X246621378Y-52317023D02*
X246592807Y-52347500D01*
X246592807Y-52347500D02*
X246535664Y-52377976D01*
X246535664Y-52377976D02*
X246307093Y-52377976D01*
X246307093Y-52377976D02*
X246307093Y-51737976D01*
X246307093Y-51737976D02*
X246507093Y-51737976D01*
X246507093Y-51737976D02*
X246564236Y-51768452D01*
X246564236Y-51768452D02*
X246592807Y-51798928D01*
X246592807Y-51798928D02*
X246621378Y-51859880D01*
X246621378Y-51859880D02*
X246621378Y-51920833D01*
X246621378Y-51920833D02*
X246592807Y-51981785D01*
X246592807Y-51981785D02*
X246564236Y-52012261D01*
X246564236Y-52012261D02*
X246507093Y-52042738D01*
X246507093Y-52042738D02*
X246307093Y-52042738D01*
X247164236Y-51737976D02*
X247049950Y-51737976D01*
X247049950Y-51737976D02*
X246992807Y-51768452D01*
X246992807Y-51768452D02*
X246964236Y-51798928D01*
X246964236Y-51798928D02*
X246907093Y-51890357D01*
X246907093Y-51890357D02*
X246878521Y-52012261D01*
X246878521Y-52012261D02*
X246878521Y-52256071D01*
X246878521Y-52256071D02*
X246907093Y-52317023D01*
X246907093Y-52317023D02*
X246935664Y-52347500D01*
X246935664Y-52347500D02*
X246992807Y-52377976D01*
X246992807Y-52377976D02*
X247107093Y-52377976D01*
X247107093Y-52377976D02*
X247164236Y-52347500D01*
X247164236Y-52347500D02*
X247192807Y-52317023D01*
X247192807Y-52317023D02*
X247221378Y-52256071D01*
X247221378Y-52256071D02*
X247221378Y-52103690D01*
X247221378Y-52103690D02*
X247192807Y-52042738D01*
X247192807Y-52042738D02*
X247164236Y-52012261D01*
X247164236Y-52012261D02*
X247107093Y-51981785D01*
X247107093Y-51981785D02*
X246992807Y-51981785D01*
X246992807Y-51981785D02*
X246935664Y-52012261D01*
X246935664Y-52012261D02*
X246907093Y-52042738D01*
X246907093Y-52042738D02*
X246878521Y-52103690D01*
D12*
X170945826Y-58625247D02*
X171060112Y-58663342D01*
X171060112Y-58663342D02*
X171098207Y-58701438D01*
X171098207Y-58701438D02*
X171136303Y-58777628D01*
X171136303Y-58777628D02*
X171136303Y-58891914D01*
X171136303Y-58891914D02*
X171098207Y-58968104D01*
X171098207Y-58968104D02*
X171060112Y-59006200D01*
X171060112Y-59006200D02*
X170983922Y-59044295D01*
X170983922Y-59044295D02*
X170679160Y-59044295D01*
X170679160Y-59044295D02*
X170679160Y-58244295D01*
X170679160Y-58244295D02*
X170945826Y-58244295D01*
X170945826Y-58244295D02*
X171022017Y-58282390D01*
X171022017Y-58282390D02*
X171060112Y-58320485D01*
X171060112Y-58320485D02*
X171098207Y-58396676D01*
X171098207Y-58396676D02*
X171098207Y-58472866D01*
X171098207Y-58472866D02*
X171060112Y-58549057D01*
X171060112Y-58549057D02*
X171022017Y-58587152D01*
X171022017Y-58587152D02*
X170945826Y-58625247D01*
X170945826Y-58625247D02*
X170679160Y-58625247D01*
X171898207Y-59044295D02*
X171441064Y-59044295D01*
X171669636Y-59044295D02*
X171669636Y-58244295D01*
X171669636Y-58244295D02*
X171593445Y-58358580D01*
X171593445Y-58358580D02*
X171517255Y-58434771D01*
X171517255Y-58434771D02*
X171441064Y-58472866D01*
X173269636Y-58625247D02*
X173383922Y-58663342D01*
X173383922Y-58663342D02*
X173422017Y-58701438D01*
X173422017Y-58701438D02*
X173460113Y-58777628D01*
X173460113Y-58777628D02*
X173460113Y-58891914D01*
X173460113Y-58891914D02*
X173422017Y-58968104D01*
X173422017Y-58968104D02*
X173383922Y-59006200D01*
X173383922Y-59006200D02*
X173307732Y-59044295D01*
X173307732Y-59044295D02*
X173002970Y-59044295D01*
X173002970Y-59044295D02*
X173002970Y-58244295D01*
X173002970Y-58244295D02*
X173269636Y-58244295D01*
X173269636Y-58244295D02*
X173345827Y-58282390D01*
X173345827Y-58282390D02*
X173383922Y-58320485D01*
X173383922Y-58320485D02*
X173422017Y-58396676D01*
X173422017Y-58396676D02*
X173422017Y-58472866D01*
X173422017Y-58472866D02*
X173383922Y-58549057D01*
X173383922Y-58549057D02*
X173345827Y-58587152D01*
X173345827Y-58587152D02*
X173269636Y-58625247D01*
X173269636Y-58625247D02*
X173002970Y-58625247D01*
X173764874Y-58320485D02*
X173802970Y-58282390D01*
X173802970Y-58282390D02*
X173879160Y-58244295D01*
X173879160Y-58244295D02*
X174069636Y-58244295D01*
X174069636Y-58244295D02*
X174145827Y-58282390D01*
X174145827Y-58282390D02*
X174183922Y-58320485D01*
X174183922Y-58320485D02*
X174222017Y-58396676D01*
X174222017Y-58396676D02*
X174222017Y-58472866D01*
X174222017Y-58472866D02*
X174183922Y-58587152D01*
X174183922Y-58587152D02*
X173726779Y-59044295D01*
X173726779Y-59044295D02*
X174222017Y-59044295D01*
X175593446Y-58625247D02*
X175707732Y-58663342D01*
X175707732Y-58663342D02*
X175745827Y-58701438D01*
X175745827Y-58701438D02*
X175783923Y-58777628D01*
X175783923Y-58777628D02*
X175783923Y-58891914D01*
X175783923Y-58891914D02*
X175745827Y-58968104D01*
X175745827Y-58968104D02*
X175707732Y-59006200D01*
X175707732Y-59006200D02*
X175631542Y-59044295D01*
X175631542Y-59044295D02*
X175326780Y-59044295D01*
X175326780Y-59044295D02*
X175326780Y-58244295D01*
X175326780Y-58244295D02*
X175593446Y-58244295D01*
X175593446Y-58244295D02*
X175669637Y-58282390D01*
X175669637Y-58282390D02*
X175707732Y-58320485D01*
X175707732Y-58320485D02*
X175745827Y-58396676D01*
X175745827Y-58396676D02*
X175745827Y-58472866D01*
X175745827Y-58472866D02*
X175707732Y-58549057D01*
X175707732Y-58549057D02*
X175669637Y-58587152D01*
X175669637Y-58587152D02*
X175593446Y-58625247D01*
X175593446Y-58625247D02*
X175326780Y-58625247D01*
X176507732Y-58244295D02*
X176126780Y-58244295D01*
X176126780Y-58244295D02*
X176088684Y-58625247D01*
X176088684Y-58625247D02*
X176126780Y-58587152D01*
X176126780Y-58587152D02*
X176202970Y-58549057D01*
X176202970Y-58549057D02*
X176393446Y-58549057D01*
X176393446Y-58549057D02*
X176469637Y-58587152D01*
X176469637Y-58587152D02*
X176507732Y-58625247D01*
X176507732Y-58625247D02*
X176545827Y-58701438D01*
X176545827Y-58701438D02*
X176545827Y-58891914D01*
X176545827Y-58891914D02*
X176507732Y-58968104D01*
X176507732Y-58968104D02*
X176469637Y-59006200D01*
X176469637Y-59006200D02*
X176393446Y-59044295D01*
X176393446Y-59044295D02*
X176202970Y-59044295D01*
X176202970Y-59044295D02*
X176126780Y-59006200D01*
X176126780Y-59006200D02*
X176088684Y-58968104D01*
X170945826Y-60657247D02*
X171060112Y-60695342D01*
X171060112Y-60695342D02*
X171098207Y-60733438D01*
X171098207Y-60733438D02*
X171136303Y-60809628D01*
X171136303Y-60809628D02*
X171136303Y-60923914D01*
X171136303Y-60923914D02*
X171098207Y-61000104D01*
X171098207Y-61000104D02*
X171060112Y-61038200D01*
X171060112Y-61038200D02*
X170983922Y-61076295D01*
X170983922Y-61076295D02*
X170679160Y-61076295D01*
X170679160Y-61076295D02*
X170679160Y-60276295D01*
X170679160Y-60276295D02*
X170945826Y-60276295D01*
X170945826Y-60276295D02*
X171022017Y-60314390D01*
X171022017Y-60314390D02*
X171060112Y-60352485D01*
X171060112Y-60352485D02*
X171098207Y-60428676D01*
X171098207Y-60428676D02*
X171098207Y-60504866D01*
X171098207Y-60504866D02*
X171060112Y-60581057D01*
X171060112Y-60581057D02*
X171022017Y-60619152D01*
X171022017Y-60619152D02*
X170945826Y-60657247D01*
X170945826Y-60657247D02*
X170679160Y-60657247D01*
X171402969Y-60276295D02*
X171898207Y-60276295D01*
X171898207Y-60276295D02*
X171631541Y-60581057D01*
X171631541Y-60581057D02*
X171745826Y-60581057D01*
X171745826Y-60581057D02*
X171822017Y-60619152D01*
X171822017Y-60619152D02*
X171860112Y-60657247D01*
X171860112Y-60657247D02*
X171898207Y-60733438D01*
X171898207Y-60733438D02*
X171898207Y-60923914D01*
X171898207Y-60923914D02*
X171860112Y-61000104D01*
X171860112Y-61000104D02*
X171822017Y-61038200D01*
X171822017Y-61038200D02*
X171745826Y-61076295D01*
X171745826Y-61076295D02*
X171517255Y-61076295D01*
X171517255Y-61076295D02*
X171441064Y-61038200D01*
X171441064Y-61038200D02*
X171402969Y-61000104D01*
X173269636Y-60657247D02*
X173383922Y-60695342D01*
X173383922Y-60695342D02*
X173422017Y-60733438D01*
X173422017Y-60733438D02*
X173460113Y-60809628D01*
X173460113Y-60809628D02*
X173460113Y-60923914D01*
X173460113Y-60923914D02*
X173422017Y-61000104D01*
X173422017Y-61000104D02*
X173383922Y-61038200D01*
X173383922Y-61038200D02*
X173307732Y-61076295D01*
X173307732Y-61076295D02*
X173002970Y-61076295D01*
X173002970Y-61076295D02*
X173002970Y-60276295D01*
X173002970Y-60276295D02*
X173269636Y-60276295D01*
X173269636Y-60276295D02*
X173345827Y-60314390D01*
X173345827Y-60314390D02*
X173383922Y-60352485D01*
X173383922Y-60352485D02*
X173422017Y-60428676D01*
X173422017Y-60428676D02*
X173422017Y-60504866D01*
X173422017Y-60504866D02*
X173383922Y-60581057D01*
X173383922Y-60581057D02*
X173345827Y-60619152D01*
X173345827Y-60619152D02*
X173269636Y-60657247D01*
X173269636Y-60657247D02*
X173002970Y-60657247D01*
X174145827Y-60542961D02*
X174145827Y-61076295D01*
X173955351Y-60238200D02*
X173764874Y-60809628D01*
X173764874Y-60809628D02*
X174260113Y-60809628D01*
X175593446Y-60657247D02*
X175707732Y-60695342D01*
X175707732Y-60695342D02*
X175745827Y-60733438D01*
X175745827Y-60733438D02*
X175783923Y-60809628D01*
X175783923Y-60809628D02*
X175783923Y-60923914D01*
X175783923Y-60923914D02*
X175745827Y-61000104D01*
X175745827Y-61000104D02*
X175707732Y-61038200D01*
X175707732Y-61038200D02*
X175631542Y-61076295D01*
X175631542Y-61076295D02*
X175326780Y-61076295D01*
X175326780Y-61076295D02*
X175326780Y-60276295D01*
X175326780Y-60276295D02*
X175593446Y-60276295D01*
X175593446Y-60276295D02*
X175669637Y-60314390D01*
X175669637Y-60314390D02*
X175707732Y-60352485D01*
X175707732Y-60352485D02*
X175745827Y-60428676D01*
X175745827Y-60428676D02*
X175745827Y-60504866D01*
X175745827Y-60504866D02*
X175707732Y-60581057D01*
X175707732Y-60581057D02*
X175669637Y-60619152D01*
X175669637Y-60619152D02*
X175593446Y-60657247D01*
X175593446Y-60657247D02*
X175326780Y-60657247D01*
X176469637Y-60276295D02*
X176317256Y-60276295D01*
X176317256Y-60276295D02*
X176241065Y-60314390D01*
X176241065Y-60314390D02*
X176202970Y-60352485D01*
X176202970Y-60352485D02*
X176126780Y-60466771D01*
X176126780Y-60466771D02*
X176088684Y-60619152D01*
X176088684Y-60619152D02*
X176088684Y-60923914D01*
X176088684Y-60923914D02*
X176126780Y-61000104D01*
X176126780Y-61000104D02*
X176164875Y-61038200D01*
X176164875Y-61038200D02*
X176241065Y-61076295D01*
X176241065Y-61076295D02*
X176393446Y-61076295D01*
X176393446Y-61076295D02*
X176469637Y-61038200D01*
X176469637Y-61038200D02*
X176507732Y-61000104D01*
X176507732Y-61000104D02*
X176545827Y-60923914D01*
X176545827Y-60923914D02*
X176545827Y-60733438D01*
X176545827Y-60733438D02*
X176507732Y-60657247D01*
X176507732Y-60657247D02*
X176469637Y-60619152D01*
X176469637Y-60619152D02*
X176393446Y-60581057D01*
X176393446Y-60581057D02*
X176241065Y-60581057D01*
X176241065Y-60581057D02*
X176164875Y-60619152D01*
X176164875Y-60619152D02*
X176126780Y-60657247D01*
X176126780Y-60657247D02*
X176088684Y-60733438D01*
X180204112Y-59044295D02*
X179823160Y-59044295D01*
X179823160Y-59044295D02*
X179823160Y-58244295D01*
X180470779Y-59044295D02*
X180470779Y-58244295D01*
X180470779Y-58244295D02*
X180775541Y-58244295D01*
X180775541Y-58244295D02*
X180851731Y-58282390D01*
X180851731Y-58282390D02*
X180889826Y-58320485D01*
X180889826Y-58320485D02*
X180927922Y-58396676D01*
X180927922Y-58396676D02*
X180927922Y-58510961D01*
X180927922Y-58510961D02*
X180889826Y-58587152D01*
X180889826Y-58587152D02*
X180851731Y-58625247D01*
X180851731Y-58625247D02*
X180775541Y-58663342D01*
X180775541Y-58663342D02*
X180470779Y-58663342D01*
X182032684Y-59044295D02*
X182032684Y-58244295D01*
X182032684Y-58244295D02*
X182299350Y-58815723D01*
X182299350Y-58815723D02*
X182566017Y-58244295D01*
X182566017Y-58244295D02*
X182566017Y-59044295D01*
X182946970Y-59044295D02*
X182946970Y-58244295D01*
X182946970Y-58244295D02*
X183251732Y-58244295D01*
X183251732Y-58244295D02*
X183327922Y-58282390D01*
X183327922Y-58282390D02*
X183366017Y-58320485D01*
X183366017Y-58320485D02*
X183404113Y-58396676D01*
X183404113Y-58396676D02*
X183404113Y-58510961D01*
X183404113Y-58510961D02*
X183366017Y-58587152D01*
X183366017Y-58587152D02*
X183327922Y-58625247D01*
X183327922Y-58625247D02*
X183251732Y-58663342D01*
X183251732Y-58663342D02*
X182946970Y-58663342D01*
X184508875Y-59044295D02*
X184508875Y-58244295D01*
X184508875Y-58625247D02*
X184966018Y-58625247D01*
X184966018Y-59044295D02*
X184966018Y-58244295D01*
X185346970Y-59044295D02*
X185346970Y-58244295D01*
X185346970Y-58244295D02*
X185651732Y-58244295D01*
X185651732Y-58244295D02*
X185727922Y-58282390D01*
X185727922Y-58282390D02*
X185766017Y-58320485D01*
X185766017Y-58320485D02*
X185804113Y-58396676D01*
X185804113Y-58396676D02*
X185804113Y-58510961D01*
X185804113Y-58510961D02*
X185766017Y-58587152D01*
X185766017Y-58587152D02*
X185727922Y-58625247D01*
X185727922Y-58625247D02*
X185651732Y-58663342D01*
X185651732Y-58663342D02*
X185346970Y-58663342D01*
X180204112Y-61076295D02*
X179823160Y-61076295D01*
X179823160Y-61076295D02*
X179823160Y-60276295D01*
X180470779Y-61076295D02*
X180470779Y-60276295D01*
X180927922Y-61076295D02*
X180585064Y-60619152D01*
X180927922Y-60276295D02*
X180470779Y-60733438D01*
X182032684Y-61076295D02*
X182032684Y-60276295D01*
X182032684Y-60276295D02*
X182299350Y-60847723D01*
X182299350Y-60847723D02*
X182566017Y-60276295D01*
X182566017Y-60276295D02*
X182566017Y-61076295D01*
X182946970Y-61076295D02*
X182946970Y-60276295D01*
X183404113Y-61076295D02*
X183061255Y-60619152D01*
X183404113Y-60276295D02*
X182946970Y-60733438D01*
X184508875Y-61076295D02*
X184508875Y-60276295D01*
X184508875Y-60657247D02*
X184966018Y-60657247D01*
X184966018Y-61076295D02*
X184966018Y-60276295D01*
X185346970Y-61076295D02*
X185346970Y-60276295D01*
X185804113Y-61076295D02*
X185461255Y-60619152D01*
X185804113Y-60276295D02*
X185346970Y-60733438D01*
X223574588Y-63759819D02*
X223003160Y-63759819D01*
X223288874Y-63759819D02*
X223288874Y-62759819D01*
X223288874Y-62759819D02*
X223193636Y-62902676D01*
X223193636Y-62902676D02*
X223098398Y-62997914D01*
X223098398Y-62997914D02*
X223003160Y-63045533D01*
X224193636Y-62759819D02*
X224288874Y-62759819D01*
X224288874Y-62759819D02*
X224384112Y-62807438D01*
X224384112Y-62807438D02*
X224431731Y-62855057D01*
X224431731Y-62855057D02*
X224479350Y-62950295D01*
X224479350Y-62950295D02*
X224526969Y-63140771D01*
X224526969Y-63140771D02*
X224526969Y-63378866D01*
X224526969Y-63378866D02*
X224479350Y-63569342D01*
X224479350Y-63569342D02*
X224431731Y-63664580D01*
X224431731Y-63664580D02*
X224384112Y-63712200D01*
X224384112Y-63712200D02*
X224288874Y-63759819D01*
X224288874Y-63759819D02*
X224193636Y-63759819D01*
X224193636Y-63759819D02*
X224098398Y-63712200D01*
X224098398Y-63712200D02*
X224050779Y-63664580D01*
X224050779Y-63664580D02*
X224003160Y-63569342D01*
X224003160Y-63569342D02*
X223955541Y-63378866D01*
X223955541Y-63378866D02*
X223955541Y-63140771D01*
X223955541Y-63140771D02*
X224003160Y-62950295D01*
X224003160Y-62950295D02*
X224050779Y-62855057D01*
X224050779Y-62855057D02*
X224098398Y-62807438D01*
X224098398Y-62807438D02*
X224193636Y-62759819D01*
X226526970Y-63759819D02*
X226717446Y-63759819D01*
X226717446Y-63759819D02*
X226812684Y-63712200D01*
X226812684Y-63712200D02*
X226860303Y-63664580D01*
X226860303Y-63664580D02*
X226955541Y-63521723D01*
X226955541Y-63521723D02*
X227003160Y-63331247D01*
X227003160Y-63331247D02*
X227003160Y-62950295D01*
X227003160Y-62950295D02*
X226955541Y-62855057D01*
X226955541Y-62855057D02*
X226907922Y-62807438D01*
X226907922Y-62807438D02*
X226812684Y-62759819D01*
X226812684Y-62759819D02*
X226622208Y-62759819D01*
X226622208Y-62759819D02*
X226526970Y-62807438D01*
X226526970Y-62807438D02*
X226479351Y-62855057D01*
X226479351Y-62855057D02*
X226431732Y-62950295D01*
X226431732Y-62950295D02*
X226431732Y-63188390D01*
X226431732Y-63188390D02*
X226479351Y-63283628D01*
X226479351Y-63283628D02*
X226526970Y-63331247D01*
X226526970Y-63331247D02*
X226622208Y-63378866D01*
X226622208Y-63378866D02*
X226812684Y-63378866D01*
X226812684Y-63378866D02*
X226907922Y-63331247D01*
X226907922Y-63331247D02*
X226955541Y-63283628D01*
X226955541Y-63283628D02*
X227003160Y-63188390D01*
X229098399Y-63188390D02*
X229003161Y-63140771D01*
X229003161Y-63140771D02*
X228955542Y-63093152D01*
X228955542Y-63093152D02*
X228907923Y-62997914D01*
X228907923Y-62997914D02*
X228907923Y-62950295D01*
X228907923Y-62950295D02*
X228955542Y-62855057D01*
X228955542Y-62855057D02*
X229003161Y-62807438D01*
X229003161Y-62807438D02*
X229098399Y-62759819D01*
X229098399Y-62759819D02*
X229288875Y-62759819D01*
X229288875Y-62759819D02*
X229384113Y-62807438D01*
X229384113Y-62807438D02*
X229431732Y-62855057D01*
X229431732Y-62855057D02*
X229479351Y-62950295D01*
X229479351Y-62950295D02*
X229479351Y-62997914D01*
X229479351Y-62997914D02*
X229431732Y-63093152D01*
X229431732Y-63093152D02*
X229384113Y-63140771D01*
X229384113Y-63140771D02*
X229288875Y-63188390D01*
X229288875Y-63188390D02*
X229098399Y-63188390D01*
X229098399Y-63188390D02*
X229003161Y-63236009D01*
X229003161Y-63236009D02*
X228955542Y-63283628D01*
X228955542Y-63283628D02*
X228907923Y-63378866D01*
X228907923Y-63378866D02*
X228907923Y-63569342D01*
X228907923Y-63569342D02*
X228955542Y-63664580D01*
X228955542Y-63664580D02*
X229003161Y-63712200D01*
X229003161Y-63712200D02*
X229098399Y-63759819D01*
X229098399Y-63759819D02*
X229288875Y-63759819D01*
X229288875Y-63759819D02*
X229384113Y-63712200D01*
X229384113Y-63712200D02*
X229431732Y-63664580D01*
X229431732Y-63664580D02*
X229479351Y-63569342D01*
X229479351Y-63569342D02*
X229479351Y-63378866D01*
X229479351Y-63378866D02*
X229431732Y-63283628D01*
X229431732Y-63283628D02*
X229384113Y-63236009D01*
X229384113Y-63236009D02*
X229288875Y-63188390D01*
X231336495Y-62759819D02*
X232003161Y-62759819D01*
X232003161Y-62759819D02*
X231574590Y-63759819D01*
X234336495Y-62759819D02*
X234146019Y-62759819D01*
X234146019Y-62759819D02*
X234050781Y-62807438D01*
X234050781Y-62807438D02*
X234003162Y-62855057D01*
X234003162Y-62855057D02*
X233907924Y-62997914D01*
X233907924Y-62997914D02*
X233860305Y-63188390D01*
X233860305Y-63188390D02*
X233860305Y-63569342D01*
X233860305Y-63569342D02*
X233907924Y-63664580D01*
X233907924Y-63664580D02*
X233955543Y-63712200D01*
X233955543Y-63712200D02*
X234050781Y-63759819D01*
X234050781Y-63759819D02*
X234241257Y-63759819D01*
X234241257Y-63759819D02*
X234336495Y-63712200D01*
X234336495Y-63712200D02*
X234384114Y-63664580D01*
X234384114Y-63664580D02*
X234431733Y-63569342D01*
X234431733Y-63569342D02*
X234431733Y-63331247D01*
X234431733Y-63331247D02*
X234384114Y-63236009D01*
X234384114Y-63236009D02*
X234336495Y-63188390D01*
X234336495Y-63188390D02*
X234241257Y-63140771D01*
X234241257Y-63140771D02*
X234050781Y-63140771D01*
X234050781Y-63140771D02*
X233955543Y-63188390D01*
X233955543Y-63188390D02*
X233907924Y-63236009D01*
X233907924Y-63236009D02*
X233860305Y-63331247D01*
X236860305Y-62759819D02*
X236384115Y-62759819D01*
X236384115Y-62759819D02*
X236336496Y-63236009D01*
X236336496Y-63236009D02*
X236384115Y-63188390D01*
X236384115Y-63188390D02*
X236479353Y-63140771D01*
X236479353Y-63140771D02*
X236717448Y-63140771D01*
X236717448Y-63140771D02*
X236812686Y-63188390D01*
X236812686Y-63188390D02*
X236860305Y-63236009D01*
X236860305Y-63236009D02*
X236907924Y-63331247D01*
X236907924Y-63331247D02*
X236907924Y-63569342D01*
X236907924Y-63569342D02*
X236860305Y-63664580D01*
X236860305Y-63664580D02*
X236812686Y-63712200D01*
X236812686Y-63712200D02*
X236717448Y-63759819D01*
X236717448Y-63759819D02*
X236479353Y-63759819D01*
X236479353Y-63759819D02*
X236384115Y-63712200D01*
X236384115Y-63712200D02*
X236336496Y-63664580D01*
X239288877Y-63093152D02*
X239288877Y-63759819D01*
X239050782Y-62712200D02*
X238812687Y-63426485D01*
X238812687Y-63426485D02*
X239431734Y-63426485D01*
X241241259Y-62759819D02*
X241860306Y-62759819D01*
X241860306Y-62759819D02*
X241526973Y-63140771D01*
X241526973Y-63140771D02*
X241669830Y-63140771D01*
X241669830Y-63140771D02*
X241765068Y-63188390D01*
X241765068Y-63188390D02*
X241812687Y-63236009D01*
X241812687Y-63236009D02*
X241860306Y-63331247D01*
X241860306Y-63331247D02*
X241860306Y-63569342D01*
X241860306Y-63569342D02*
X241812687Y-63664580D01*
X241812687Y-63664580D02*
X241765068Y-63712200D01*
X241765068Y-63712200D02*
X241669830Y-63759819D01*
X241669830Y-63759819D02*
X241384116Y-63759819D01*
X241384116Y-63759819D02*
X241288878Y-63712200D01*
X241288878Y-63712200D02*
X241241259Y-63664580D01*
X243765069Y-62855057D02*
X243812688Y-62807438D01*
X243812688Y-62807438D02*
X243907926Y-62759819D01*
X243907926Y-62759819D02*
X244146021Y-62759819D01*
X244146021Y-62759819D02*
X244241259Y-62807438D01*
X244241259Y-62807438D02*
X244288878Y-62855057D01*
X244288878Y-62855057D02*
X244336497Y-62950295D01*
X244336497Y-62950295D02*
X244336497Y-63045533D01*
X244336497Y-63045533D02*
X244288878Y-63188390D01*
X244288878Y-63188390D02*
X243717450Y-63759819D01*
X243717450Y-63759819D02*
X244336497Y-63759819D01*
X246812688Y-63759819D02*
X246241260Y-63759819D01*
X246526974Y-63759819D02*
X246526974Y-62759819D01*
X246526974Y-62759819D02*
X246431736Y-62902676D01*
X246431736Y-62902676D02*
X246336498Y-62997914D01*
X246336498Y-62997914D02*
X246241260Y-63045533D01*
X226051160Y-65140295D02*
X226051160Y-64340295D01*
X226051160Y-64721247D02*
X226508303Y-64721247D01*
X226508303Y-65140295D02*
X226508303Y-64340295D01*
X226889255Y-65140295D02*
X226889255Y-64340295D01*
X227346398Y-65140295D02*
X227003540Y-64683152D01*
X227346398Y-64340295D02*
X226889255Y-64797438D01*
X228451160Y-65140295D02*
X228451160Y-64340295D01*
X228451160Y-64340295D02*
X228717826Y-64911723D01*
X228717826Y-64911723D02*
X228984493Y-64340295D01*
X228984493Y-64340295D02*
X228984493Y-65140295D01*
X229365446Y-65140295D02*
X229365446Y-64340295D01*
X229822589Y-65140295D02*
X229479731Y-64683152D01*
X229822589Y-64340295D02*
X229365446Y-64797438D01*
X231308303Y-65140295D02*
X230927351Y-65140295D01*
X230927351Y-65140295D02*
X230927351Y-64340295D01*
X231574970Y-65140295D02*
X231574970Y-64340295D01*
X232032113Y-65140295D02*
X231689255Y-64683152D01*
X232032113Y-64340295D02*
X231574970Y-64797438D01*
X226098779Y-67061819D02*
X226098779Y-66061819D01*
X226098779Y-66061819D02*
X226479731Y-66061819D01*
X226479731Y-66061819D02*
X226574969Y-66109438D01*
X226574969Y-66109438D02*
X226622588Y-66157057D01*
X226622588Y-66157057D02*
X226670207Y-66252295D01*
X226670207Y-66252295D02*
X226670207Y-66395152D01*
X226670207Y-66395152D02*
X226622588Y-66490390D01*
X226622588Y-66490390D02*
X226574969Y-66538009D01*
X226574969Y-66538009D02*
X226479731Y-66585628D01*
X226479731Y-66585628D02*
X226098779Y-66585628D01*
X227241636Y-67061819D02*
X227146398Y-67014200D01*
X227146398Y-67014200D02*
X227098779Y-66918961D01*
X227098779Y-66918961D02*
X227098779Y-66061819D01*
X228051160Y-67061819D02*
X228051160Y-66538009D01*
X228051160Y-66538009D02*
X228003541Y-66442771D01*
X228003541Y-66442771D02*
X227908303Y-66395152D01*
X227908303Y-66395152D02*
X227717827Y-66395152D01*
X227717827Y-66395152D02*
X227622589Y-66442771D01*
X228051160Y-67014200D02*
X227955922Y-67061819D01*
X227955922Y-67061819D02*
X227717827Y-67061819D01*
X227717827Y-67061819D02*
X227622589Y-67014200D01*
X227622589Y-67014200D02*
X227574970Y-66918961D01*
X227574970Y-66918961D02*
X227574970Y-66823723D01*
X227574970Y-66823723D02*
X227622589Y-66728485D01*
X227622589Y-66728485D02*
X227717827Y-66680866D01*
X227717827Y-66680866D02*
X227955922Y-66680866D01*
X227955922Y-66680866D02*
X228051160Y-66633247D01*
X228432113Y-66395152D02*
X228670208Y-67061819D01*
X228908303Y-66395152D02*
X228670208Y-67061819D01*
X228670208Y-67061819D02*
X228574970Y-67299914D01*
X228574970Y-67299914D02*
X228527351Y-67347533D01*
X228527351Y-67347533D02*
X228432113Y-67395152D01*
X229670208Y-67014200D02*
X229574970Y-67061819D01*
X229574970Y-67061819D02*
X229384494Y-67061819D01*
X229384494Y-67061819D02*
X229289256Y-67014200D01*
X229289256Y-67014200D02*
X229241637Y-66918961D01*
X229241637Y-66918961D02*
X229241637Y-66538009D01*
X229241637Y-66538009D02*
X229289256Y-66442771D01*
X229289256Y-66442771D02*
X229384494Y-66395152D01*
X229384494Y-66395152D02*
X229574970Y-66395152D01*
X229574970Y-66395152D02*
X229670208Y-66442771D01*
X229670208Y-66442771D02*
X229717827Y-66538009D01*
X229717827Y-66538009D02*
X229717827Y-66633247D01*
X229717827Y-66633247D02*
X229241637Y-66728485D01*
X230146399Y-67061819D02*
X230146399Y-66395152D01*
X230146399Y-66585628D02*
X230194018Y-66490390D01*
X230194018Y-66490390D02*
X230241637Y-66442771D01*
X230241637Y-66442771D02*
X230336875Y-66395152D01*
X230336875Y-66395152D02*
X230432113Y-66395152D01*
X231479733Y-66157057D02*
X231527352Y-66109438D01*
X231527352Y-66109438D02*
X231622590Y-66061819D01*
X231622590Y-66061819D02*
X231860685Y-66061819D01*
X231860685Y-66061819D02*
X231955923Y-66109438D01*
X231955923Y-66109438D02*
X232003542Y-66157057D01*
X232003542Y-66157057D02*
X232051161Y-66252295D01*
X232051161Y-66252295D02*
X232051161Y-66347533D01*
X232051161Y-66347533D02*
X232003542Y-66490390D01*
X232003542Y-66490390D02*
X231432114Y-67061819D01*
X231432114Y-67061819D02*
X232051161Y-67061819D01*
X236465160Y-65140295D02*
X236465160Y-64340295D01*
X236465160Y-64721247D02*
X236922303Y-64721247D01*
X236922303Y-65140295D02*
X236922303Y-64340295D01*
X237303255Y-65140295D02*
X237303255Y-64340295D01*
X237760398Y-65140295D02*
X237417540Y-64683152D01*
X237760398Y-64340295D02*
X237303255Y-64797438D01*
X238865160Y-65140295D02*
X238865160Y-64340295D01*
X238865160Y-64340295D02*
X239131826Y-64911723D01*
X239131826Y-64911723D02*
X239398493Y-64340295D01*
X239398493Y-64340295D02*
X239398493Y-65140295D01*
X239779446Y-65140295D02*
X239779446Y-64340295D01*
X240236589Y-65140295D02*
X239893731Y-64683152D01*
X240236589Y-64340295D02*
X239779446Y-64797438D01*
X241722303Y-65140295D02*
X241341351Y-65140295D01*
X241341351Y-65140295D02*
X241341351Y-64340295D01*
X241988970Y-65140295D02*
X241988970Y-64340295D01*
X242446113Y-65140295D02*
X242103255Y-64683152D01*
X242446113Y-64340295D02*
X241988970Y-64797438D01*
X236512779Y-67061819D02*
X236512779Y-66061819D01*
X236512779Y-66061819D02*
X236893731Y-66061819D01*
X236893731Y-66061819D02*
X236988969Y-66109438D01*
X236988969Y-66109438D02*
X237036588Y-66157057D01*
X237036588Y-66157057D02*
X237084207Y-66252295D01*
X237084207Y-66252295D02*
X237084207Y-66395152D01*
X237084207Y-66395152D02*
X237036588Y-66490390D01*
X237036588Y-66490390D02*
X236988969Y-66538009D01*
X236988969Y-66538009D02*
X236893731Y-66585628D01*
X236893731Y-66585628D02*
X236512779Y-66585628D01*
X237655636Y-67061819D02*
X237560398Y-67014200D01*
X237560398Y-67014200D02*
X237512779Y-66918961D01*
X237512779Y-66918961D02*
X237512779Y-66061819D01*
X238465160Y-67061819D02*
X238465160Y-66538009D01*
X238465160Y-66538009D02*
X238417541Y-66442771D01*
X238417541Y-66442771D02*
X238322303Y-66395152D01*
X238322303Y-66395152D02*
X238131827Y-66395152D01*
X238131827Y-66395152D02*
X238036589Y-66442771D01*
X238465160Y-67014200D02*
X238369922Y-67061819D01*
X238369922Y-67061819D02*
X238131827Y-67061819D01*
X238131827Y-67061819D02*
X238036589Y-67014200D01*
X238036589Y-67014200D02*
X237988970Y-66918961D01*
X237988970Y-66918961D02*
X237988970Y-66823723D01*
X237988970Y-66823723D02*
X238036589Y-66728485D01*
X238036589Y-66728485D02*
X238131827Y-66680866D01*
X238131827Y-66680866D02*
X238369922Y-66680866D01*
X238369922Y-66680866D02*
X238465160Y-66633247D01*
X238846113Y-66395152D02*
X239084208Y-67061819D01*
X239322303Y-66395152D02*
X239084208Y-67061819D01*
X239084208Y-67061819D02*
X238988970Y-67299914D01*
X238988970Y-67299914D02*
X238941351Y-67347533D01*
X238941351Y-67347533D02*
X238846113Y-67395152D01*
X240084208Y-67014200D02*
X239988970Y-67061819D01*
X239988970Y-67061819D02*
X239798494Y-67061819D01*
X239798494Y-67061819D02*
X239703256Y-67014200D01*
X239703256Y-67014200D02*
X239655637Y-66918961D01*
X239655637Y-66918961D02*
X239655637Y-66538009D01*
X239655637Y-66538009D02*
X239703256Y-66442771D01*
X239703256Y-66442771D02*
X239798494Y-66395152D01*
X239798494Y-66395152D02*
X239988970Y-66395152D01*
X239988970Y-66395152D02*
X240084208Y-66442771D01*
X240084208Y-66442771D02*
X240131827Y-66538009D01*
X240131827Y-66538009D02*
X240131827Y-66633247D01*
X240131827Y-66633247D02*
X239655637Y-66728485D01*
X240560399Y-67061819D02*
X240560399Y-66395152D01*
X240560399Y-66585628D02*
X240608018Y-66490390D01*
X240608018Y-66490390D02*
X240655637Y-66442771D01*
X240655637Y-66442771D02*
X240750875Y-66395152D01*
X240750875Y-66395152D02*
X240846113Y-66395152D01*
X242465161Y-67061819D02*
X241893733Y-67061819D01*
X242179447Y-67061819D02*
X242179447Y-66061819D01*
X242179447Y-66061819D02*
X242084209Y-66204676D01*
X242084209Y-66204676D02*
X241988971Y-66299914D01*
X241988971Y-66299914D02*
X241893733Y-66347533D01*
X248060207Y-62962390D02*
X247984017Y-62924295D01*
X247984017Y-62924295D02*
X247869731Y-62924295D01*
X247869731Y-62924295D02*
X247755445Y-62962390D01*
X247755445Y-62962390D02*
X247679255Y-63038580D01*
X247679255Y-63038580D02*
X247641160Y-63114771D01*
X247641160Y-63114771D02*
X247603064Y-63267152D01*
X247603064Y-63267152D02*
X247603064Y-63381438D01*
X247603064Y-63381438D02*
X247641160Y-63533819D01*
X247641160Y-63533819D02*
X247679255Y-63610009D01*
X247679255Y-63610009D02*
X247755445Y-63686200D01*
X247755445Y-63686200D02*
X247869731Y-63724295D01*
X247869731Y-63724295D02*
X247945922Y-63724295D01*
X247945922Y-63724295D02*
X248060207Y-63686200D01*
X248060207Y-63686200D02*
X248098303Y-63648104D01*
X248098303Y-63648104D02*
X248098303Y-63381438D01*
X248098303Y-63381438D02*
X247945922Y-63381438D01*
X248441160Y-63724295D02*
X248441160Y-62924295D01*
X248441160Y-62924295D02*
X248898303Y-63724295D01*
X248898303Y-63724295D02*
X248898303Y-62924295D01*
X249279255Y-63724295D02*
X249279255Y-62924295D01*
X249279255Y-62924295D02*
X249469731Y-62924295D01*
X249469731Y-62924295D02*
X249584017Y-62962390D01*
X249584017Y-62962390D02*
X249660207Y-63038580D01*
X249660207Y-63038580D02*
X249698302Y-63114771D01*
X249698302Y-63114771D02*
X249736398Y-63267152D01*
X249736398Y-63267152D02*
X249736398Y-63381438D01*
X249736398Y-63381438D02*
X249698302Y-63533819D01*
X249698302Y-63533819D02*
X249660207Y-63610009D01*
X249660207Y-63610009D02*
X249584017Y-63686200D01*
X249584017Y-63686200D02*
X249469731Y-63724295D01*
X249469731Y-63724295D02*
X249279255Y-63724295D01*
X170858288Y-64089914D02*
X170858288Y-63129914D01*
X170858288Y-64044200D02*
X170766859Y-64089914D01*
X170766859Y-64089914D02*
X170584002Y-64089914D01*
X170584002Y-64089914D02*
X170492573Y-64044200D01*
X170492573Y-64044200D02*
X170446859Y-63998485D01*
X170446859Y-63998485D02*
X170401145Y-63907057D01*
X170401145Y-63907057D02*
X170401145Y-63632771D01*
X170401145Y-63632771D02*
X170446859Y-63541342D01*
X170446859Y-63541342D02*
X170492573Y-63495628D01*
X170492573Y-63495628D02*
X170584002Y-63449914D01*
X170584002Y-63449914D02*
X170766859Y-63449914D01*
X170766859Y-63449914D02*
X170858288Y-63495628D01*
X171681144Y-64044200D02*
X171589716Y-64089914D01*
X171589716Y-64089914D02*
X171406859Y-64089914D01*
X171406859Y-64089914D02*
X171315430Y-64044200D01*
X171315430Y-64044200D02*
X171269716Y-63952771D01*
X171269716Y-63952771D02*
X171269716Y-63587057D01*
X171269716Y-63587057D02*
X171315430Y-63495628D01*
X171315430Y-63495628D02*
X171406859Y-63449914D01*
X171406859Y-63449914D02*
X171589716Y-63449914D01*
X171589716Y-63449914D02*
X171681144Y-63495628D01*
X171681144Y-63495628D02*
X171726859Y-63587057D01*
X171726859Y-63587057D02*
X171726859Y-63678485D01*
X171726859Y-63678485D02*
X171269716Y-63769914D01*
X172092573Y-64044200D02*
X172184001Y-64089914D01*
X172184001Y-64089914D02*
X172366858Y-64089914D01*
X172366858Y-64089914D02*
X172458287Y-64044200D01*
X172458287Y-64044200D02*
X172504001Y-63952771D01*
X172504001Y-63952771D02*
X172504001Y-63907057D01*
X172504001Y-63907057D02*
X172458287Y-63815628D01*
X172458287Y-63815628D02*
X172366858Y-63769914D01*
X172366858Y-63769914D02*
X172229716Y-63769914D01*
X172229716Y-63769914D02*
X172138287Y-63724200D01*
X172138287Y-63724200D02*
X172092573Y-63632771D01*
X172092573Y-63632771D02*
X172092573Y-63587057D01*
X172092573Y-63587057D02*
X172138287Y-63495628D01*
X172138287Y-63495628D02*
X172229716Y-63449914D01*
X172229716Y-63449914D02*
X172366858Y-63449914D01*
X172366858Y-63449914D02*
X172458287Y-63495628D01*
X172915430Y-64089914D02*
X172915430Y-63449914D01*
X172915430Y-63129914D02*
X172869716Y-63175628D01*
X172869716Y-63175628D02*
X172915430Y-63221342D01*
X172915430Y-63221342D02*
X172961144Y-63175628D01*
X172961144Y-63175628D02*
X172915430Y-63129914D01*
X172915430Y-63129914D02*
X172915430Y-63221342D01*
X173784002Y-63449914D02*
X173784002Y-64227057D01*
X173784002Y-64227057D02*
X173738287Y-64318485D01*
X173738287Y-64318485D02*
X173692573Y-64364200D01*
X173692573Y-64364200D02*
X173601144Y-64409914D01*
X173601144Y-64409914D02*
X173464002Y-64409914D01*
X173464002Y-64409914D02*
X173372573Y-64364200D01*
X173784002Y-64044200D02*
X173692573Y-64089914D01*
X173692573Y-64089914D02*
X173509716Y-64089914D01*
X173509716Y-64089914D02*
X173418287Y-64044200D01*
X173418287Y-64044200D02*
X173372573Y-63998485D01*
X173372573Y-63998485D02*
X173326859Y-63907057D01*
X173326859Y-63907057D02*
X173326859Y-63632771D01*
X173326859Y-63632771D02*
X173372573Y-63541342D01*
X173372573Y-63541342D02*
X173418287Y-63495628D01*
X173418287Y-63495628D02*
X173509716Y-63449914D01*
X173509716Y-63449914D02*
X173692573Y-63449914D01*
X173692573Y-63449914D02*
X173784002Y-63495628D01*
X174241144Y-63449914D02*
X174241144Y-64089914D01*
X174241144Y-63541342D02*
X174286858Y-63495628D01*
X174286858Y-63495628D02*
X174378287Y-63449914D01*
X174378287Y-63449914D02*
X174515430Y-63449914D01*
X174515430Y-63449914D02*
X174606858Y-63495628D01*
X174606858Y-63495628D02*
X174652573Y-63587057D01*
X174652573Y-63587057D02*
X174652573Y-64089914D01*
X175475429Y-64044200D02*
X175384001Y-64089914D01*
X175384001Y-64089914D02*
X175201144Y-64089914D01*
X175201144Y-64089914D02*
X175109715Y-64044200D01*
X175109715Y-64044200D02*
X175064001Y-63952771D01*
X175064001Y-63952771D02*
X175064001Y-63587057D01*
X175064001Y-63587057D02*
X175109715Y-63495628D01*
X175109715Y-63495628D02*
X175201144Y-63449914D01*
X175201144Y-63449914D02*
X175384001Y-63449914D01*
X175384001Y-63449914D02*
X175475429Y-63495628D01*
X175475429Y-63495628D02*
X175521144Y-63587057D01*
X175521144Y-63587057D02*
X175521144Y-63678485D01*
X175521144Y-63678485D02*
X175064001Y-63769914D01*
X176344001Y-64089914D02*
X176344001Y-63129914D01*
X176344001Y-64044200D02*
X176252572Y-64089914D01*
X176252572Y-64089914D02*
X176069715Y-64089914D01*
X176069715Y-64089914D02*
X175978286Y-64044200D01*
X175978286Y-64044200D02*
X175932572Y-63998485D01*
X175932572Y-63998485D02*
X175886858Y-63907057D01*
X175886858Y-63907057D02*
X175886858Y-63632771D01*
X175886858Y-63632771D02*
X175932572Y-63541342D01*
X175932572Y-63541342D02*
X175978286Y-63495628D01*
X175978286Y-63495628D02*
X176069715Y-63449914D01*
X176069715Y-63449914D02*
X176252572Y-63449914D01*
X176252572Y-63449914D02*
X176344001Y-63495628D01*
X177532572Y-64089914D02*
X177532572Y-63129914D01*
X177532572Y-63495628D02*
X177624001Y-63449914D01*
X177624001Y-63449914D02*
X177806858Y-63449914D01*
X177806858Y-63449914D02*
X177898286Y-63495628D01*
X177898286Y-63495628D02*
X177944001Y-63541342D01*
X177944001Y-63541342D02*
X177989715Y-63632771D01*
X177989715Y-63632771D02*
X177989715Y-63907057D01*
X177989715Y-63907057D02*
X177944001Y-63998485D01*
X177944001Y-63998485D02*
X177898286Y-64044200D01*
X177898286Y-64044200D02*
X177806858Y-64089914D01*
X177806858Y-64089914D02*
X177624001Y-64089914D01*
X177624001Y-64089914D02*
X177532572Y-64044200D01*
X178309714Y-63449914D02*
X178538286Y-64089914D01*
X178766857Y-63449914D02*
X178538286Y-64089914D01*
X178538286Y-64089914D02*
X178446857Y-64318485D01*
X178446857Y-64318485D02*
X178401143Y-64364200D01*
X178401143Y-64364200D02*
X178309714Y-64409914D01*
X179726858Y-63449914D02*
X180092572Y-63449914D01*
X179864001Y-63129914D02*
X179864001Y-63952771D01*
X179864001Y-63952771D02*
X179909715Y-64044200D01*
X179909715Y-64044200D02*
X180001144Y-64089914D01*
X180001144Y-64089914D02*
X180092572Y-64089914D01*
X180824001Y-64089914D02*
X180824001Y-63587057D01*
X180824001Y-63587057D02*
X180778286Y-63495628D01*
X180778286Y-63495628D02*
X180686858Y-63449914D01*
X180686858Y-63449914D02*
X180504001Y-63449914D01*
X180504001Y-63449914D02*
X180412572Y-63495628D01*
X180824001Y-64044200D02*
X180732572Y-64089914D01*
X180732572Y-64089914D02*
X180504001Y-64089914D01*
X180504001Y-64089914D02*
X180412572Y-64044200D01*
X180412572Y-64044200D02*
X180366858Y-63952771D01*
X180366858Y-63952771D02*
X180366858Y-63861342D01*
X180366858Y-63861342D02*
X180412572Y-63769914D01*
X180412572Y-63769914D02*
X180504001Y-63724200D01*
X180504001Y-63724200D02*
X180732572Y-63724200D01*
X180732572Y-63724200D02*
X180824001Y-63678485D01*
X181418286Y-64089914D02*
X181326857Y-64044200D01*
X181326857Y-64044200D02*
X181281143Y-63952771D01*
X181281143Y-63952771D02*
X181281143Y-63129914D01*
X182149714Y-64044200D02*
X182058286Y-64089914D01*
X182058286Y-64089914D02*
X181875429Y-64089914D01*
X181875429Y-64089914D02*
X181784000Y-64044200D01*
X181784000Y-64044200D02*
X181738286Y-63952771D01*
X181738286Y-63952771D02*
X181738286Y-63587057D01*
X181738286Y-63587057D02*
X181784000Y-63495628D01*
X181784000Y-63495628D02*
X181875429Y-63449914D01*
X181875429Y-63449914D02*
X182058286Y-63449914D01*
X182058286Y-63449914D02*
X182149714Y-63495628D01*
X182149714Y-63495628D02*
X182195429Y-63587057D01*
X182195429Y-63587057D02*
X182195429Y-63678485D01*
X182195429Y-63678485D02*
X181738286Y-63769914D01*
X182515428Y-64089914D02*
X183018286Y-63449914D01*
X182515428Y-63449914D02*
X183018286Y-64089914D01*
X183384000Y-63724200D02*
X184115429Y-63724200D01*
X184435428Y-63449914D02*
X184801142Y-63449914D01*
X184572571Y-63129914D02*
X184572571Y-63952771D01*
X184572571Y-63952771D02*
X184618285Y-64044200D01*
X184618285Y-64044200D02*
X184709714Y-64089914D01*
X184709714Y-64089914D02*
X184801142Y-64089914D01*
X185121142Y-63449914D02*
X185121142Y-64089914D01*
X185121142Y-63541342D02*
X185166856Y-63495628D01*
X185166856Y-63495628D02*
X185258285Y-63449914D01*
X185258285Y-63449914D02*
X185395428Y-63449914D01*
X185395428Y-63449914D02*
X185486856Y-63495628D01*
X185486856Y-63495628D02*
X185532571Y-63587057D01*
X185532571Y-63587057D02*
X185532571Y-64089914D01*
X185852570Y-63449914D02*
X186218284Y-63449914D01*
X185989713Y-63129914D02*
X185989713Y-63952771D01*
X185989713Y-63952771D02*
X186035427Y-64044200D01*
X186035427Y-64044200D02*
X186126856Y-64089914D01*
X186126856Y-64089914D02*
X186218284Y-64089914D01*
X186968000Y-60119342D02*
X186968000Y-58919342D01*
X187653714Y-60119342D02*
X187139428Y-59433628D01*
X187653714Y-58919342D02*
X186968000Y-59605057D01*
X188168000Y-60119342D02*
X188168000Y-58919342D01*
X189425143Y-60005057D02*
X189368000Y-60062200D01*
X189368000Y-60062200D02*
X189196572Y-60119342D01*
X189196572Y-60119342D02*
X189082286Y-60119342D01*
X189082286Y-60119342D02*
X188910857Y-60062200D01*
X188910857Y-60062200D02*
X188796572Y-59947914D01*
X188796572Y-59947914D02*
X188739429Y-59833628D01*
X188739429Y-59833628D02*
X188682286Y-59605057D01*
X188682286Y-59605057D02*
X188682286Y-59433628D01*
X188682286Y-59433628D02*
X188739429Y-59205057D01*
X188739429Y-59205057D02*
X188796572Y-59090771D01*
X188796572Y-59090771D02*
X188910857Y-58976485D01*
X188910857Y-58976485D02*
X189082286Y-58919342D01*
X189082286Y-58919342D02*
X189196572Y-58919342D01*
X189196572Y-58919342D02*
X189368000Y-58976485D01*
X189368000Y-58976485D02*
X189425143Y-59033628D01*
X189939429Y-60119342D02*
X189939429Y-58919342D01*
X190625143Y-60119342D02*
X190110857Y-59433628D01*
X190625143Y-58919342D02*
X189939429Y-59605057D01*
X192053715Y-60119342D02*
X192053715Y-58919342D01*
X192053715Y-59490771D02*
X192739429Y-59490771D01*
X192739429Y-60119342D02*
X192739429Y-58919342D01*
X193253715Y-59776485D02*
X193825144Y-59776485D01*
X193139429Y-60119342D02*
X193539429Y-58919342D01*
X193539429Y-58919342D02*
X193939429Y-60119342D01*
X195025143Y-60119342D02*
X194625143Y-59547914D01*
X194339429Y-60119342D02*
X194339429Y-58919342D01*
X194339429Y-58919342D02*
X194796572Y-58919342D01*
X194796572Y-58919342D02*
X194910857Y-58976485D01*
X194910857Y-58976485D02*
X194968000Y-59033628D01*
X194968000Y-59033628D02*
X195025143Y-59147914D01*
X195025143Y-59147914D02*
X195025143Y-59319342D01*
X195025143Y-59319342D02*
X194968000Y-59433628D01*
X194968000Y-59433628D02*
X194910857Y-59490771D01*
X194910857Y-59490771D02*
X194796572Y-59547914D01*
X194796572Y-59547914D02*
X194339429Y-59547914D01*
X195539429Y-60119342D02*
X195539429Y-58919342D01*
X195539429Y-58919342D02*
X196225143Y-60119342D01*
X196225143Y-60119342D02*
X196225143Y-58919342D01*
X196796572Y-59490771D02*
X197196572Y-59490771D01*
X197368000Y-60119342D02*
X196796572Y-60119342D01*
X196796572Y-60119342D02*
X196796572Y-58919342D01*
X196796572Y-58919342D02*
X197368000Y-58919342D01*
X197825143Y-60062200D02*
X197996572Y-60119342D01*
X197996572Y-60119342D02*
X198282286Y-60119342D01*
X198282286Y-60119342D02*
X198396572Y-60062200D01*
X198396572Y-60062200D02*
X198453714Y-60005057D01*
X198453714Y-60005057D02*
X198510857Y-59890771D01*
X198510857Y-59890771D02*
X198510857Y-59776485D01*
X198510857Y-59776485D02*
X198453714Y-59662200D01*
X198453714Y-59662200D02*
X198396572Y-59605057D01*
X198396572Y-59605057D02*
X198282286Y-59547914D01*
X198282286Y-59547914D02*
X198053714Y-59490771D01*
X198053714Y-59490771D02*
X197939429Y-59433628D01*
X197939429Y-59433628D02*
X197882286Y-59376485D01*
X197882286Y-59376485D02*
X197825143Y-59262200D01*
X197825143Y-59262200D02*
X197825143Y-59147914D01*
X197825143Y-59147914D02*
X197882286Y-59033628D01*
X197882286Y-59033628D02*
X197939429Y-58976485D01*
X197939429Y-58976485D02*
X198053714Y-58919342D01*
X198053714Y-58919342D02*
X198339429Y-58919342D01*
X198339429Y-58919342D02*
X198510857Y-58976485D01*
X198968000Y-60062200D02*
X199139429Y-60119342D01*
X199139429Y-60119342D02*
X199425143Y-60119342D01*
X199425143Y-60119342D02*
X199539429Y-60062200D01*
X199539429Y-60062200D02*
X199596571Y-60005057D01*
X199596571Y-60005057D02*
X199653714Y-59890771D01*
X199653714Y-59890771D02*
X199653714Y-59776485D01*
X199653714Y-59776485D02*
X199596571Y-59662200D01*
X199596571Y-59662200D02*
X199539429Y-59605057D01*
X199539429Y-59605057D02*
X199425143Y-59547914D01*
X199425143Y-59547914D02*
X199196571Y-59490771D01*
X199196571Y-59490771D02*
X199082286Y-59433628D01*
X199082286Y-59433628D02*
X199025143Y-59376485D01*
X199025143Y-59376485D02*
X198968000Y-59262200D01*
X198968000Y-59262200D02*
X198968000Y-59147914D01*
X198968000Y-59147914D02*
X199025143Y-59033628D01*
X199025143Y-59033628D02*
X199082286Y-58976485D01*
X199082286Y-58976485D02*
X199196571Y-58919342D01*
X199196571Y-58919342D02*
X199482286Y-58919342D01*
X199482286Y-58919342D02*
X199653714Y-58976485D01*
X201025143Y-59776485D02*
X201596572Y-59776485D01*
X200910857Y-60119342D02*
X201310857Y-58919342D01*
X201310857Y-58919342D02*
X201710857Y-60119342D01*
X202110857Y-60119342D02*
X202110857Y-58919342D01*
X202110857Y-58919342D02*
X202396571Y-58919342D01*
X202396571Y-58919342D02*
X202568000Y-58976485D01*
X202568000Y-58976485D02*
X202682285Y-59090771D01*
X202682285Y-59090771D02*
X202739428Y-59205057D01*
X202739428Y-59205057D02*
X202796571Y-59433628D01*
X202796571Y-59433628D02*
X202796571Y-59605057D01*
X202796571Y-59605057D02*
X202739428Y-59833628D01*
X202739428Y-59833628D02*
X202682285Y-59947914D01*
X202682285Y-59947914D02*
X202568000Y-60062200D01*
X202568000Y-60062200D02*
X202396571Y-60119342D01*
X202396571Y-60119342D02*
X202110857Y-60119342D01*
X203253714Y-59776485D02*
X203825143Y-59776485D01*
X203139428Y-60119342D02*
X203539428Y-58919342D01*
X203539428Y-58919342D02*
X203939428Y-60119342D01*
X204339428Y-60119342D02*
X204339428Y-58919342D01*
X204339428Y-58919342D02*
X204796571Y-58919342D01*
X204796571Y-58919342D02*
X204910856Y-58976485D01*
X204910856Y-58976485D02*
X204967999Y-59033628D01*
X204967999Y-59033628D02*
X205025142Y-59147914D01*
X205025142Y-59147914D02*
X205025142Y-59319342D01*
X205025142Y-59319342D02*
X204967999Y-59433628D01*
X204967999Y-59433628D02*
X204910856Y-59490771D01*
X204910856Y-59490771D02*
X204796571Y-59547914D01*
X204796571Y-59547914D02*
X204339428Y-59547914D01*
X205367999Y-58919342D02*
X206053714Y-58919342D01*
X205710856Y-60119342D02*
X205710856Y-58919342D01*
X206453714Y-59490771D02*
X206853714Y-59490771D01*
X207025142Y-60119342D02*
X206453714Y-60119342D01*
X206453714Y-60119342D02*
X206453714Y-58919342D01*
X206453714Y-58919342D02*
X207025142Y-58919342D01*
X208225142Y-60119342D02*
X207825142Y-59547914D01*
X207539428Y-60119342D02*
X207539428Y-58919342D01*
X207539428Y-58919342D02*
X207996571Y-58919342D01*
X207996571Y-58919342D02*
X208110856Y-58976485D01*
X208110856Y-58976485D02*
X208167999Y-59033628D01*
X208167999Y-59033628D02*
X208225142Y-59147914D01*
X208225142Y-59147914D02*
X208225142Y-59319342D01*
X208225142Y-59319342D02*
X208167999Y-59433628D01*
X208167999Y-59433628D02*
X208110856Y-59490771D01*
X208110856Y-59490771D02*
X207996571Y-59547914D01*
X207996571Y-59547914D02*
X207539428Y-59547914D01*
X196596571Y-61205342D02*
X196996571Y-62405342D01*
X196996571Y-62405342D02*
X197396571Y-61205342D01*
X198425142Y-62405342D02*
X197739428Y-62405342D01*
X198082285Y-62405342D02*
X198082285Y-61205342D01*
X198082285Y-61205342D02*
X197967999Y-61376771D01*
X197967999Y-61376771D02*
X197853714Y-61491057D01*
X197853714Y-61491057D02*
X197739428Y-61548200D01*
X189781428Y-67117057D02*
X189724285Y-67174200D01*
X189724285Y-67174200D02*
X189552857Y-67231342D01*
X189552857Y-67231342D02*
X189438571Y-67231342D01*
X189438571Y-67231342D02*
X189267142Y-67174200D01*
X189267142Y-67174200D02*
X189152857Y-67059914D01*
X189152857Y-67059914D02*
X189095714Y-66945628D01*
X189095714Y-66945628D02*
X189038571Y-66717057D01*
X189038571Y-66717057D02*
X189038571Y-66545628D01*
X189038571Y-66545628D02*
X189095714Y-66317057D01*
X189095714Y-66317057D02*
X189152857Y-66202771D01*
X189152857Y-66202771D02*
X189267142Y-66088485D01*
X189267142Y-66088485D02*
X189438571Y-66031342D01*
X189438571Y-66031342D02*
X189552857Y-66031342D01*
X189552857Y-66031342D02*
X189724285Y-66088485D01*
X189724285Y-66088485D02*
X189781428Y-66145628D01*
X190295714Y-67231342D02*
X190295714Y-66031342D01*
X190295714Y-66031342D02*
X190752857Y-66031342D01*
X190752857Y-66031342D02*
X190867142Y-66088485D01*
X190867142Y-66088485D02*
X190924285Y-66145628D01*
X190924285Y-66145628D02*
X190981428Y-66259914D01*
X190981428Y-66259914D02*
X190981428Y-66431342D01*
X190981428Y-66431342D02*
X190924285Y-66545628D01*
X190924285Y-66545628D02*
X190867142Y-66602771D01*
X190867142Y-66602771D02*
X190752857Y-66659914D01*
X190752857Y-66659914D02*
X190295714Y-66659914D01*
X191438571Y-67174200D02*
X191610000Y-67231342D01*
X191610000Y-67231342D02*
X191895714Y-67231342D01*
X191895714Y-67231342D02*
X192010000Y-67174200D01*
X192010000Y-67174200D02*
X192067142Y-67117057D01*
X192067142Y-67117057D02*
X192124285Y-67002771D01*
X192124285Y-67002771D02*
X192124285Y-66888485D01*
X192124285Y-66888485D02*
X192067142Y-66774200D01*
X192067142Y-66774200D02*
X192010000Y-66717057D01*
X192010000Y-66717057D02*
X191895714Y-66659914D01*
X191895714Y-66659914D02*
X191667142Y-66602771D01*
X191667142Y-66602771D02*
X191552857Y-66545628D01*
X191552857Y-66545628D02*
X191495714Y-66488485D01*
X191495714Y-66488485D02*
X191438571Y-66374200D01*
X191438571Y-66374200D02*
X191438571Y-66259914D01*
X191438571Y-66259914D02*
X191495714Y-66145628D01*
X191495714Y-66145628D02*
X191552857Y-66088485D01*
X191552857Y-66088485D02*
X191667142Y-66031342D01*
X191667142Y-66031342D02*
X191952857Y-66031342D01*
X191952857Y-66031342D02*
X192124285Y-66088485D01*
X193267142Y-67231342D02*
X192581428Y-67231342D01*
X192924285Y-67231342D02*
X192924285Y-66031342D01*
X192924285Y-66031342D02*
X192809999Y-66202771D01*
X192809999Y-66202771D02*
X192695714Y-66317057D01*
X192695714Y-66317057D02*
X192581428Y-66374200D01*
X195038571Y-66031342D02*
X195038571Y-66888485D01*
X195038571Y-66888485D02*
X194981428Y-67059914D01*
X194981428Y-67059914D02*
X194867142Y-67174200D01*
X194867142Y-67174200D02*
X194695714Y-67231342D01*
X194695714Y-67231342D02*
X194581428Y-67231342D01*
X195552857Y-66888485D02*
X196124286Y-66888485D01*
X195438571Y-67231342D02*
X195838571Y-66031342D01*
X195838571Y-66031342D02*
X196238571Y-67231342D01*
X196638571Y-67231342D02*
X196638571Y-66031342D01*
X196638571Y-66031342D02*
X197038571Y-66888485D01*
X197038571Y-66888485D02*
X197438571Y-66031342D01*
X197438571Y-66031342D02*
X197438571Y-67231342D01*
X198010000Y-67231342D02*
X198010000Y-66031342D01*
X198010000Y-66031342D02*
X198410000Y-66888485D01*
X198410000Y-66888485D02*
X198810000Y-66031342D01*
X198810000Y-66031342D02*
X198810000Y-67231342D01*
X199324286Y-66888485D02*
X199895715Y-66888485D01*
X199210000Y-67231342D02*
X199610000Y-66031342D01*
X199610000Y-66031342D02*
X200010000Y-67231342D01*
X201324286Y-66602771D02*
X201724286Y-66602771D01*
X201895714Y-67231342D02*
X201324286Y-67231342D01*
X201324286Y-67231342D02*
X201324286Y-66031342D01*
X201324286Y-66031342D02*
X201895714Y-66031342D01*
X202410000Y-67231342D02*
X202410000Y-66031342D01*
X202410000Y-66031342D02*
X202695714Y-66031342D01*
X202695714Y-66031342D02*
X202867143Y-66088485D01*
X202867143Y-66088485D02*
X202981428Y-66202771D01*
X202981428Y-66202771D02*
X203038571Y-66317057D01*
X203038571Y-66317057D02*
X203095714Y-66545628D01*
X203095714Y-66545628D02*
X203095714Y-66717057D01*
X203095714Y-66717057D02*
X203038571Y-66945628D01*
X203038571Y-66945628D02*
X202981428Y-67059914D01*
X202981428Y-67059914D02*
X202867143Y-67174200D01*
X202867143Y-67174200D02*
X202695714Y-67231342D01*
X202695714Y-67231342D02*
X202410000Y-67231342D01*
X204238571Y-66088485D02*
X204124286Y-66031342D01*
X204124286Y-66031342D02*
X203952857Y-66031342D01*
X203952857Y-66031342D02*
X203781428Y-66088485D01*
X203781428Y-66088485D02*
X203667143Y-66202771D01*
X203667143Y-66202771D02*
X203610000Y-66317057D01*
X203610000Y-66317057D02*
X203552857Y-66545628D01*
X203552857Y-66545628D02*
X203552857Y-66717057D01*
X203552857Y-66717057D02*
X203610000Y-66945628D01*
X203610000Y-66945628D02*
X203667143Y-67059914D01*
X203667143Y-67059914D02*
X203781428Y-67174200D01*
X203781428Y-67174200D02*
X203952857Y-67231342D01*
X203952857Y-67231342D02*
X204067143Y-67231342D01*
X204067143Y-67231342D02*
X204238571Y-67174200D01*
X204238571Y-67174200D02*
X204295714Y-67117057D01*
X204295714Y-67117057D02*
X204295714Y-66717057D01*
X204295714Y-66717057D02*
X204067143Y-66717057D01*
X204810000Y-66602771D02*
X205210000Y-66602771D01*
X205381428Y-67231342D02*
X204810000Y-67231342D01*
X204810000Y-67231342D02*
X204810000Y-66031342D01*
X204810000Y-66031342D02*
X205381428Y-66031342D01*
X184552857Y-52918485D02*
X185124286Y-52918485D01*
X184438571Y-53261342D02*
X184838571Y-52061342D01*
X184838571Y-52061342D02*
X185238571Y-53261342D01*
X186324285Y-53261342D02*
X185924285Y-52689914D01*
X185638571Y-53261342D02*
X185638571Y-52061342D01*
X185638571Y-52061342D02*
X186095714Y-52061342D01*
X186095714Y-52061342D02*
X186209999Y-52118485D01*
X186209999Y-52118485D02*
X186267142Y-52175628D01*
X186267142Y-52175628D02*
X186324285Y-52289914D01*
X186324285Y-52289914D02*
X186324285Y-52461342D01*
X186324285Y-52461342D02*
X186267142Y-52575628D01*
X186267142Y-52575628D02*
X186209999Y-52632771D01*
X186209999Y-52632771D02*
X186095714Y-52689914D01*
X186095714Y-52689914D02*
X185638571Y-52689914D01*
X187524285Y-53147057D02*
X187467142Y-53204200D01*
X187467142Y-53204200D02*
X187295714Y-53261342D01*
X187295714Y-53261342D02*
X187181428Y-53261342D01*
X187181428Y-53261342D02*
X187009999Y-53204200D01*
X187009999Y-53204200D02*
X186895714Y-53089914D01*
X186895714Y-53089914D02*
X186838571Y-52975628D01*
X186838571Y-52975628D02*
X186781428Y-52747057D01*
X186781428Y-52747057D02*
X186781428Y-52575628D01*
X186781428Y-52575628D02*
X186838571Y-52347057D01*
X186838571Y-52347057D02*
X186895714Y-52232771D01*
X186895714Y-52232771D02*
X187009999Y-52118485D01*
X187009999Y-52118485D02*
X187181428Y-52061342D01*
X187181428Y-52061342D02*
X187295714Y-52061342D01*
X187295714Y-52061342D02*
X187467142Y-52118485D01*
X187467142Y-52118485D02*
X187524285Y-52175628D01*
X187981428Y-52918485D02*
X188552857Y-52918485D01*
X187867142Y-53261342D02*
X188267142Y-52061342D01*
X188267142Y-52061342D02*
X188667142Y-53261342D01*
X189067142Y-53261342D02*
X189067142Y-52061342D01*
X189067142Y-52061342D02*
X189352856Y-52061342D01*
X189352856Y-52061342D02*
X189524285Y-52118485D01*
X189524285Y-52118485D02*
X189638570Y-52232771D01*
X189638570Y-52232771D02*
X189695713Y-52347057D01*
X189695713Y-52347057D02*
X189752856Y-52575628D01*
X189752856Y-52575628D02*
X189752856Y-52747057D01*
X189752856Y-52747057D02*
X189695713Y-52975628D01*
X189695713Y-52975628D02*
X189638570Y-53089914D01*
X189638570Y-53089914D02*
X189524285Y-53204200D01*
X189524285Y-53204200D02*
X189352856Y-53261342D01*
X189352856Y-53261342D02*
X189067142Y-53261342D01*
X190267142Y-52632771D02*
X190667142Y-52632771D01*
X190838570Y-53261342D02*
X190267142Y-53261342D01*
X190267142Y-53261342D02*
X190267142Y-52061342D01*
X190267142Y-52061342D02*
X190838570Y-52061342D01*
X192952856Y-53147057D02*
X192895713Y-53204200D01*
X192895713Y-53204200D02*
X192724285Y-53261342D01*
X192724285Y-53261342D02*
X192609999Y-53261342D01*
X192609999Y-53261342D02*
X192438570Y-53204200D01*
X192438570Y-53204200D02*
X192324285Y-53089914D01*
X192324285Y-53089914D02*
X192267142Y-52975628D01*
X192267142Y-52975628D02*
X192209999Y-52747057D01*
X192209999Y-52747057D02*
X192209999Y-52575628D01*
X192209999Y-52575628D02*
X192267142Y-52347057D01*
X192267142Y-52347057D02*
X192324285Y-52232771D01*
X192324285Y-52232771D02*
X192438570Y-52118485D01*
X192438570Y-52118485D02*
X192609999Y-52061342D01*
X192609999Y-52061342D02*
X192724285Y-52061342D01*
X192724285Y-52061342D02*
X192895713Y-52118485D01*
X192895713Y-52118485D02*
X192952856Y-52175628D01*
X193409999Y-52918485D02*
X193981428Y-52918485D01*
X193295713Y-53261342D02*
X193695713Y-52061342D01*
X193695713Y-52061342D02*
X194095713Y-53261342D01*
X194895713Y-52632771D02*
X195067141Y-52689914D01*
X195067141Y-52689914D02*
X195124284Y-52747057D01*
X195124284Y-52747057D02*
X195181427Y-52861342D01*
X195181427Y-52861342D02*
X195181427Y-53032771D01*
X195181427Y-53032771D02*
X195124284Y-53147057D01*
X195124284Y-53147057D02*
X195067141Y-53204200D01*
X195067141Y-53204200D02*
X194952856Y-53261342D01*
X194952856Y-53261342D02*
X194495713Y-53261342D01*
X194495713Y-53261342D02*
X194495713Y-52061342D01*
X194495713Y-52061342D02*
X194895713Y-52061342D01*
X194895713Y-52061342D02*
X195009999Y-52118485D01*
X195009999Y-52118485D02*
X195067141Y-52175628D01*
X195067141Y-52175628D02*
X195124284Y-52289914D01*
X195124284Y-52289914D02*
X195124284Y-52404200D01*
X195124284Y-52404200D02*
X195067141Y-52518485D01*
X195067141Y-52518485D02*
X195009999Y-52575628D01*
X195009999Y-52575628D02*
X194895713Y-52632771D01*
X194895713Y-52632771D02*
X194495713Y-52632771D01*
X195695713Y-53261342D02*
X195695713Y-52061342D01*
X196267142Y-53261342D02*
X196267142Y-52061342D01*
X196267142Y-52061342D02*
X196952856Y-53261342D01*
X196952856Y-53261342D02*
X196952856Y-52061342D01*
X197524285Y-52632771D02*
X197924285Y-52632771D01*
X198095713Y-53261342D02*
X197524285Y-53261342D01*
X197524285Y-53261342D02*
X197524285Y-52061342D01*
X197524285Y-52061342D02*
X198095713Y-52061342D01*
X198438570Y-52061342D02*
X199124285Y-52061342D01*
X198781427Y-53261342D02*
X198781427Y-52061342D01*
X200381428Y-52004200D02*
X199352856Y-53547057D01*
X200724285Y-53204200D02*
X200895714Y-53261342D01*
X200895714Y-53261342D02*
X201181428Y-53261342D01*
X201181428Y-53261342D02*
X201295714Y-53204200D01*
X201295714Y-53204200D02*
X201352856Y-53147057D01*
X201352856Y-53147057D02*
X201409999Y-53032771D01*
X201409999Y-53032771D02*
X201409999Y-52918485D01*
X201409999Y-52918485D02*
X201352856Y-52804200D01*
X201352856Y-52804200D02*
X201295714Y-52747057D01*
X201295714Y-52747057D02*
X201181428Y-52689914D01*
X201181428Y-52689914D02*
X200952856Y-52632771D01*
X200952856Y-52632771D02*
X200838571Y-52575628D01*
X200838571Y-52575628D02*
X200781428Y-52518485D01*
X200781428Y-52518485D02*
X200724285Y-52404200D01*
X200724285Y-52404200D02*
X200724285Y-52289914D01*
X200724285Y-52289914D02*
X200781428Y-52175628D01*
X200781428Y-52175628D02*
X200838571Y-52118485D01*
X200838571Y-52118485D02*
X200952856Y-52061342D01*
X200952856Y-52061342D02*
X201238571Y-52061342D01*
X201238571Y-52061342D02*
X201409999Y-52118485D01*
X201924285Y-52061342D02*
X201924285Y-53032771D01*
X201924285Y-53032771D02*
X201981428Y-53147057D01*
X201981428Y-53147057D02*
X202038571Y-53204200D01*
X202038571Y-53204200D02*
X202152856Y-53261342D01*
X202152856Y-53261342D02*
X202381428Y-53261342D01*
X202381428Y-53261342D02*
X202495713Y-53204200D01*
X202495713Y-53204200D02*
X202552856Y-53147057D01*
X202552856Y-53147057D02*
X202609999Y-53032771D01*
X202609999Y-53032771D02*
X202609999Y-52061342D01*
X203181428Y-53261342D02*
X203181428Y-52061342D01*
X203181428Y-52061342D02*
X203638571Y-52061342D01*
X203638571Y-52061342D02*
X203752856Y-52118485D01*
X203752856Y-52118485D02*
X203809999Y-52175628D01*
X203809999Y-52175628D02*
X203867142Y-52289914D01*
X203867142Y-52289914D02*
X203867142Y-52461342D01*
X203867142Y-52461342D02*
X203809999Y-52575628D01*
X203809999Y-52575628D02*
X203752856Y-52632771D01*
X203752856Y-52632771D02*
X203638571Y-52689914D01*
X203638571Y-52689914D02*
X203181428Y-52689914D01*
X204381428Y-52632771D02*
X204781428Y-52632771D01*
X204952856Y-53261342D02*
X204381428Y-53261342D01*
X204381428Y-53261342D02*
X204381428Y-52061342D01*
X204381428Y-52061342D02*
X204952856Y-52061342D01*
X206152856Y-53261342D02*
X205752856Y-52689914D01*
X205467142Y-53261342D02*
X205467142Y-52061342D01*
X205467142Y-52061342D02*
X205924285Y-52061342D01*
X205924285Y-52061342D02*
X206038570Y-52118485D01*
X206038570Y-52118485D02*
X206095713Y-52175628D01*
X206095713Y-52175628D02*
X206152856Y-52289914D01*
X206152856Y-52289914D02*
X206152856Y-52461342D01*
X206152856Y-52461342D02*
X206095713Y-52575628D01*
X206095713Y-52575628D02*
X206038570Y-52632771D01*
X206038570Y-52632771D02*
X205924285Y-52689914D01*
X205924285Y-52689914D02*
X205467142Y-52689914D01*
X207295713Y-52118485D02*
X207181428Y-52061342D01*
X207181428Y-52061342D02*
X207009999Y-52061342D01*
X207009999Y-52061342D02*
X206838570Y-52118485D01*
X206838570Y-52118485D02*
X206724285Y-52232771D01*
X206724285Y-52232771D02*
X206667142Y-52347057D01*
X206667142Y-52347057D02*
X206609999Y-52575628D01*
X206609999Y-52575628D02*
X206609999Y-52747057D01*
X206609999Y-52747057D02*
X206667142Y-52975628D01*
X206667142Y-52975628D02*
X206724285Y-53089914D01*
X206724285Y-53089914D02*
X206838570Y-53204200D01*
X206838570Y-53204200D02*
X207009999Y-53261342D01*
X207009999Y-53261342D02*
X207124285Y-53261342D01*
X207124285Y-53261342D02*
X207295713Y-53204200D01*
X207295713Y-53204200D02*
X207352856Y-53147057D01*
X207352856Y-53147057D02*
X207352856Y-52747057D01*
X207352856Y-52747057D02*
X207124285Y-52747057D01*
X207867142Y-52061342D02*
X207867142Y-53032771D01*
X207867142Y-53032771D02*
X207924285Y-53147057D01*
X207924285Y-53147057D02*
X207981428Y-53204200D01*
X207981428Y-53204200D02*
X208095713Y-53261342D01*
X208095713Y-53261342D02*
X208324285Y-53261342D01*
X208324285Y-53261342D02*
X208438570Y-53204200D01*
X208438570Y-53204200D02*
X208495713Y-53147057D01*
X208495713Y-53147057D02*
X208552856Y-53032771D01*
X208552856Y-53032771D02*
X208552856Y-52061342D01*
X209124285Y-53261342D02*
X209124285Y-52061342D01*
X209124285Y-52061342D02*
X209809999Y-53261342D01*
X209809999Y-53261342D02*
X209809999Y-52061342D01*
X227648190Y-57137580D02*
X227600571Y-57185200D01*
X227600571Y-57185200D02*
X227457714Y-57232819D01*
X227457714Y-57232819D02*
X227362476Y-57232819D01*
X227362476Y-57232819D02*
X227219619Y-57185200D01*
X227219619Y-57185200D02*
X227124381Y-57089961D01*
X227124381Y-57089961D02*
X227076762Y-56994723D01*
X227076762Y-56994723D02*
X227029143Y-56804247D01*
X227029143Y-56804247D02*
X227029143Y-56661390D01*
X227029143Y-56661390D02*
X227076762Y-56470914D01*
X227076762Y-56470914D02*
X227124381Y-56375676D01*
X227124381Y-56375676D02*
X227219619Y-56280438D01*
X227219619Y-56280438D02*
X227362476Y-56232819D01*
X227362476Y-56232819D02*
X227457714Y-56232819D01*
X227457714Y-56232819D02*
X227600571Y-56280438D01*
X227600571Y-56280438D02*
X227648190Y-56328057D01*
X228076762Y-57232819D02*
X228076762Y-56232819D01*
X228076762Y-56232819D02*
X228457714Y-56232819D01*
X228457714Y-56232819D02*
X228552952Y-56280438D01*
X228552952Y-56280438D02*
X228600571Y-56328057D01*
X228600571Y-56328057D02*
X228648190Y-56423295D01*
X228648190Y-56423295D02*
X228648190Y-56566152D01*
X228648190Y-56566152D02*
X228600571Y-56661390D01*
X228600571Y-56661390D02*
X228552952Y-56709009D01*
X228552952Y-56709009D02*
X228457714Y-56756628D01*
X228457714Y-56756628D02*
X228076762Y-56756628D01*
X229029143Y-57185200D02*
X229172000Y-57232819D01*
X229172000Y-57232819D02*
X229410095Y-57232819D01*
X229410095Y-57232819D02*
X229505333Y-57185200D01*
X229505333Y-57185200D02*
X229552952Y-57137580D01*
X229552952Y-57137580D02*
X229600571Y-57042342D01*
X229600571Y-57042342D02*
X229600571Y-56947104D01*
X229600571Y-56947104D02*
X229552952Y-56851866D01*
X229552952Y-56851866D02*
X229505333Y-56804247D01*
X229505333Y-56804247D02*
X229410095Y-56756628D01*
X229410095Y-56756628D02*
X229219619Y-56709009D01*
X229219619Y-56709009D02*
X229124381Y-56661390D01*
X229124381Y-56661390D02*
X229076762Y-56613771D01*
X229076762Y-56613771D02*
X229029143Y-56518533D01*
X229029143Y-56518533D02*
X229029143Y-56423295D01*
X229029143Y-56423295D02*
X229076762Y-56328057D01*
X229076762Y-56328057D02*
X229124381Y-56280438D01*
X229124381Y-56280438D02*
X229219619Y-56232819D01*
X229219619Y-56232819D02*
X229457714Y-56232819D01*
X229457714Y-56232819D02*
X229600571Y-56280438D01*
X230552952Y-57232819D02*
X229981524Y-57232819D01*
X230267238Y-57232819D02*
X230267238Y-56232819D01*
X230267238Y-56232819D02*
X230172000Y-56375676D01*
X230172000Y-56375676D02*
X230076762Y-56470914D01*
X230076762Y-56470914D02*
X229981524Y-56518533D01*
X231743429Y-57232819D02*
X231743429Y-56232819D01*
X232314857Y-57232819D02*
X231886286Y-56661390D01*
X232314857Y-56232819D02*
X231743429Y-56804247D01*
X232743429Y-57232819D02*
X232743429Y-56232819D01*
X233791047Y-57137580D02*
X233743428Y-57185200D01*
X233743428Y-57185200D02*
X233600571Y-57232819D01*
X233600571Y-57232819D02*
X233505333Y-57232819D01*
X233505333Y-57232819D02*
X233362476Y-57185200D01*
X233362476Y-57185200D02*
X233267238Y-57089961D01*
X233267238Y-57089961D02*
X233219619Y-56994723D01*
X233219619Y-56994723D02*
X233172000Y-56804247D01*
X233172000Y-56804247D02*
X233172000Y-56661390D01*
X233172000Y-56661390D02*
X233219619Y-56470914D01*
X233219619Y-56470914D02*
X233267238Y-56375676D01*
X233267238Y-56375676D02*
X233362476Y-56280438D01*
X233362476Y-56280438D02*
X233505333Y-56232819D01*
X233505333Y-56232819D02*
X233600571Y-56232819D01*
X233600571Y-56232819D02*
X233743428Y-56280438D01*
X233743428Y-56280438D02*
X233791047Y-56328057D01*
X234219619Y-57232819D02*
X234219619Y-56232819D01*
X234791047Y-57232819D02*
X234362476Y-56661390D01*
X234791047Y-56232819D02*
X234219619Y-56804247D01*
X235981524Y-57232819D02*
X235981524Y-56232819D01*
X235981524Y-56709009D02*
X236552952Y-56709009D01*
X236552952Y-57232819D02*
X236552952Y-56232819D01*
X236981524Y-56947104D02*
X237457714Y-56947104D01*
X236886286Y-57232819D02*
X237219619Y-56232819D01*
X237219619Y-56232819D02*
X237552952Y-57232819D01*
X238457714Y-57232819D02*
X238124381Y-56756628D01*
X237886286Y-57232819D02*
X237886286Y-56232819D01*
X237886286Y-56232819D02*
X238267238Y-56232819D01*
X238267238Y-56232819D02*
X238362476Y-56280438D01*
X238362476Y-56280438D02*
X238410095Y-56328057D01*
X238410095Y-56328057D02*
X238457714Y-56423295D01*
X238457714Y-56423295D02*
X238457714Y-56566152D01*
X238457714Y-56566152D02*
X238410095Y-56661390D01*
X238410095Y-56661390D02*
X238362476Y-56709009D01*
X238362476Y-56709009D02*
X238267238Y-56756628D01*
X238267238Y-56756628D02*
X237886286Y-56756628D01*
X238886286Y-57232819D02*
X238886286Y-56232819D01*
X238886286Y-56232819D02*
X239457714Y-57232819D01*
X239457714Y-57232819D02*
X239457714Y-56232819D01*
X239933905Y-56709009D02*
X240267238Y-56709009D01*
X240410095Y-57232819D02*
X239933905Y-57232819D01*
X239933905Y-57232819D02*
X239933905Y-56232819D01*
X239933905Y-56232819D02*
X240410095Y-56232819D01*
X240791048Y-57185200D02*
X240933905Y-57232819D01*
X240933905Y-57232819D02*
X241172000Y-57232819D01*
X241172000Y-57232819D02*
X241267238Y-57185200D01*
X241267238Y-57185200D02*
X241314857Y-57137580D01*
X241314857Y-57137580D02*
X241362476Y-57042342D01*
X241362476Y-57042342D02*
X241362476Y-56947104D01*
X241362476Y-56947104D02*
X241314857Y-56851866D01*
X241314857Y-56851866D02*
X241267238Y-56804247D01*
X241267238Y-56804247D02*
X241172000Y-56756628D01*
X241172000Y-56756628D02*
X240981524Y-56709009D01*
X240981524Y-56709009D02*
X240886286Y-56661390D01*
X240886286Y-56661390D02*
X240838667Y-56613771D01*
X240838667Y-56613771D02*
X240791048Y-56518533D01*
X240791048Y-56518533D02*
X240791048Y-56423295D01*
X240791048Y-56423295D02*
X240838667Y-56328057D01*
X240838667Y-56328057D02*
X240886286Y-56280438D01*
X240886286Y-56280438D02*
X240981524Y-56232819D01*
X240981524Y-56232819D02*
X241219619Y-56232819D01*
X241219619Y-56232819D02*
X241362476Y-56280438D01*
X241743429Y-57185200D02*
X241886286Y-57232819D01*
X241886286Y-57232819D02*
X242124381Y-57232819D01*
X242124381Y-57232819D02*
X242219619Y-57185200D01*
X242219619Y-57185200D02*
X242267238Y-57137580D01*
X242267238Y-57137580D02*
X242314857Y-57042342D01*
X242314857Y-57042342D02*
X242314857Y-56947104D01*
X242314857Y-56947104D02*
X242267238Y-56851866D01*
X242267238Y-56851866D02*
X242219619Y-56804247D01*
X242219619Y-56804247D02*
X242124381Y-56756628D01*
X242124381Y-56756628D02*
X241933905Y-56709009D01*
X241933905Y-56709009D02*
X241838667Y-56661390D01*
X241838667Y-56661390D02*
X241791048Y-56613771D01*
X241791048Y-56613771D02*
X241743429Y-56518533D01*
X241743429Y-56518533D02*
X241743429Y-56423295D01*
X241743429Y-56423295D02*
X241791048Y-56328057D01*
X241791048Y-56328057D02*
X241838667Y-56280438D01*
X241838667Y-56280438D02*
X241933905Y-56232819D01*
X241933905Y-56232819D02*
X242172000Y-56232819D01*
X242172000Y-56232819D02*
X242314857Y-56280438D01*
%TO.C,CPS1 JAMMA EDGE*%
X142075000Y-69400000D02*
X142075000Y-77400000D01*
X142075000Y-69400000D02*
X142075000Y-77400000D01*
X142075000Y-77400000D02*
X252345000Y-77400000D01*
X142075000Y-77400000D02*
X252345000Y-77400000D01*
X143075000Y-68400000D02*
X142075000Y-69400000D01*
X143075000Y-68400000D02*
X142075000Y-69400000D01*
X252345000Y-68400000D02*
X143075000Y-68400000D01*
X252345000Y-68400000D02*
X143075000Y-68400000D01*
X252345000Y-77400000D02*
X252345000Y-68400000D01*
X252345000Y-77400000D02*
X252345000Y-68400000D01*
%TO.C,ARCADE CABINET/SUPERGUN*%
X142075000Y-42500000D02*
X142075000Y-50500000D01*
X142075000Y-42500000D02*
X142075000Y-50500000D01*
X142075000Y-50500000D02*
X252345000Y-50500000D01*
X142075000Y-50500000D02*
X252345000Y-50500000D01*
X143075000Y-41500000D02*
X142075000Y-42500000D01*
X143075000Y-41500000D02*
X142075000Y-42500000D01*
X252345000Y-41500000D02*
X143075000Y-41500000D01*
X252345000Y-41500000D02*
X143075000Y-41500000D01*
X252345000Y-50500000D02*
X252345000Y-41500000D01*
X252345000Y-50500000D02*
X252345000Y-41500000D01*
%TO.C,CPS1 KICK HARNESS*%
D13*
X220812000Y-59270000D02*
X221812000Y-59270000D01*
X221312000Y-60080000D02*
X220812000Y-60080000D01*
X221312000Y-61290000D02*
X221312000Y-60080000D01*
X221812000Y-59270000D02*
X221812000Y-57770000D01*
X247532000Y-59270000D02*
X247532000Y-57770000D01*
X248032000Y-60080000D02*
X248032000Y-61290000D01*
X248032000Y-61290000D02*
X221312000Y-61290000D01*
X248532000Y-59270000D02*
X247532000Y-59270000D01*
X248532000Y-60080000D02*
X248032000Y-60080000D01*
X248832000Y-57470000D02*
X246332000Y-57470000D01*
X248832000Y-59970000D02*
X248832000Y-57470000D01*
X220812000Y-57770000D02*
X248532000Y-57770000D01*
X248532000Y-61790000D01*
X220812000Y-61790000D01*
X220812000Y-57770000D01*
%TD*%
M02*
