M48
; DRILL file KiCad 10.0.6 date 2026-09-16T16:30:20
; FORMAT={-:-/ absolute / metric / decimal}
; #@! TF.CreationDate,2026-09-16T16:30:20+02:00
; #@! TF.GenerationSoftware,Kicad,Pcbnew,10.0.6
; #@! TF.FileFunction,Plated,1,2,PTH
FMAT,2
METRIC
; #@! TA.AperFunction,Plated,PTH,ViaDrill
T1C0.300
; #@! TA.AperFunction,Plated,PTH,ComponentDrill
T2C0.950
%
G90
G05
T1
X143.75Y-56.524
X147.71Y-56.524
X151.67Y-56.524
X155.63Y-56.524
X159.6Y-56.524
X163.55Y-56.524
X221.825Y-54.365
X230.842Y-55.508
X231.604Y-56.524
X233.382Y-51.76
X236.43Y-51.698
X238.462Y-55.508
X239.986Y-56.778
X241.51Y-51.698
X244.812Y-55.508
X244.812Y-56.778
T2
X223.422Y-60.08
X225.922Y-60.08
X228.422Y-60.08
X230.922Y-60.08
X233.422Y-60.08
X235.922Y-60.08
X238.422Y-60.08
X240.922Y-60.08
X243.422Y-60.08
X245.922Y-60.08
M30
